STARTFONT 2.1
COMMENT Originally a BSD vfont.
FONT Holdouble-36
SIZE 36 72 72
FONTBOUNDINGBOX 32 36 0 -10
STARTPROPERTIES 6
FONT_ASCENT 26
FONT_DESCENT 10
DEFAULT_CHAR 0
RESOLUTION 72
POINT_SIZE 360
FONT "Holdouble"
ENDPROPERTIES
CHARS 256
STARTCHAR <unknown>
ENCODING 0
SWIDTH 42 0
DWIDTH 0 0
BBX 0 0 0 0
BITMAP
ENDCHAR
STARTCHAR <unknown>
ENCODING 1
SWIDTH 42 0
DWIDTH 30 0
BBX 30 36 0 -10
BITMAP
00000000
00000000
00000000
00000000
00000000
00000000
00000000
00000000
00000000
00000000
00000000
00000000
00000000
00000000
00000000
00000000
00000000
00000000
00000000
00000000
00000000
00000000
00000000
00000000
00000000
00000000
00000000
00000000
00000000
00000000
00000000
00000000
00000000
00000000
00000000
00000000
ENDCHAR
STARTCHAR <unknown>
ENCODING 2
SWIDTH 42 0
DWIDTH 30 0
BBX 30 36 0 -10
BITMAP
00000000
00000000
00000000
00000000
00000000
00000000
00000000
00000000
00000000
00000000
00000000
00000000
00000000
00000000
00000000
00000000
00000000
00000000
00000000
00000000
00000000
00000000
00000000
00000000
00000000
00000000
00000000
00000000
00000000
00000000
00000000
00000000
00000000
00000000
00000000
00000000
ENDCHAR
STARTCHAR <unknown>
ENCODING 3
SWIDTH 42 0
DWIDTH 30 0
BBX 30 36 0 -10
BITMAP
00000000
00000000
00000000
00000000
00000000
00000000
00000000
00000000
00000000
00000000
00000000
00000000
00000000
00000000
00000000
00000000
00000000
00000000
00000000
00000000
00000000
00000000
00000000
00000000
00000000
00000000
00000000
00000000
00000000
00000000
00000000
00000000
00000000
00000000
00000000
00000000
ENDCHAR
STARTCHAR <unknown>
ENCODING 4
SWIDTH 42 0
DWIDTH 30 0
BBX 30 36 0 -10
BITMAP
00000000
00000000
00000000
00000000
00000000
00000000
00000000
00000000
00000000
00000000
00000000
00000000
00000000
00000000
00000000
00000000
00000000
00000000
00000000
00000000
00000000
00000000
00000000
00000000
00000000
00000000
00000000
00000000
00000000
00000000
00000000
00000000
00000000
00000000
00000000
00000000
ENDCHAR
STARTCHAR <unknown>
ENCODING 5
SWIDTH 42 0
DWIDTH 24 0
BBX 24 36 0 -10
BITMAP
000000
000000
000000
000000
000000
000000
000000
000000
000000
000000
000000
000000
000000
000000
000000
000000
000000
000000
000000
000000
000000
000000
000000
000000
000000
000000
000000
000000
000000
000000
000000
000000
000000
000000
000000
000000
ENDCHAR
STARTCHAR <unknown>
ENCODING 6
SWIDTH 42 0
DWIDTH 20 0
BBX 20 36 0 -10
BITMAP
000000
000000
000000
000000
000000
000000
000000
000000
000000
000000
000000
000000
000000
000000
000000
000000
000000
000000
000000
000000
000000
000000
000000
000000
000000
000000
000000
000000
000000
000000
000000
000000
000000
000000
000000
000000
ENDCHAR
STARTCHAR <unknown>
ENCODING 7
SWIDTH 42 0
DWIDTH 18 0
BBX 18 36 0 -10
BITMAP
000000
000000
000000
000000
000000
000000
000000
000000
000000
000000
000000
000000
000000
000000
000000
000000
000000
000000
000000
000000
000000
000000
000000
000000
000000
000000
000000
000000
000000
000000
000000
000000
000000
000000
000000
000000
ENDCHAR
STARTCHAR <unknown>
ENCODING 8
SWIDTH 42 0
DWIDTH 30 0
BBX 30 36 0 -10
BITMAP
00000000
00000000
00000000
00000000
00000000
00000000
00000000
00000000
00000000
00000000
00000000
00000000
00000000
00000000
00000000
00000000
00000000
00000000
00000000
00000000
00000000
00000000
00000000
00000000
00000000
00000000
00000000
00000000
00000000
00000000
00000000
00000000
00000000
00000000
00000000
00000000
ENDCHAR
STARTCHAR <unknown>
ENCODING 9
SWIDTH 42 0
DWIDTH 18 0
BBX 18 36 0 -10
BITMAP
000000
000000
000000
000000
000000
000000
000000
000000
000000
000000
000000
000000
000000
000000
000000
000000
000000
000000
000000
000000
000000
000000
000000
000000
000000
000000
000000
000000
000000
000000
000000
000000
000000
000000
000000
000000
ENDCHAR
STARTCHAR <unknown>
ENCODING 10
SWIDTH 42 0
DWIDTH 30 0
BBX 30 36 0 -10
BITMAP
00000000
00000000
00000000
00000000
00000000
00000000
00000000
00000000
00000000
00000000
00000000
00000000
00000000
00000000
00000000
00000000
00000000
00000000
00000000
00000000
00000000
00000000
00000000
00000000
00000000
00000000
00000000
00000000
00000000
00000000
00000000
00000000
00000000
00000000
00000000
00000000
ENDCHAR
STARTCHAR <unknown>
ENCODING 11
SWIDTH 42 0
DWIDTH 18 0
BBX 18 36 0 -10
BITMAP
000000
000000
000000
000000
000000
000000
000000
000000
000000
000000
000000
000000
000000
000000
000000
000000
000000
000000
000000
000000
000000
000000
000000
000000
000000
000000
000000
000000
000000
000000
000000
000000
000000
000000
000000
000000
ENDCHAR
STARTCHAR <unknown>
ENCODING 12
SWIDTH 42 0
DWIDTH 22 0
BBX 22 36 0 -10
BITMAP
000000
000000
000000
000000
000000
000000
000000
000000
000000
000000
000000
000000
000000
000000
000000
000000
000000
000000
000000
000000
000000
000000
000000
000000
000000
000000
000000
000000
000000
000000
000000
000000
000000
000000
000000
000000
ENDCHAR
STARTCHAR <unknown>
ENCODING 13
SWIDTH 42 0
DWIDTH 30 0
BBX 30 36 0 -10
BITMAP
00000000
00000000
00000000
00000000
00000000
00000000
00000000
00000000
00000000
00000000
00000000
00000000
00000000
00000000
00000000
00000000
00000000
00000000
00000000
00000000
00000000
00000000
00000000
00000000
00000000
00000000
00000000
00000000
00000000
00000000
00000000
00000000
00000000
00000000
00000000
00000000
ENDCHAR
STARTCHAR <unknown>
ENCODING 14
SWIDTH 42 0
DWIDTH 18 0
BBX 18 36 0 -10
BITMAP
000000
000000
000000
000000
000000
000000
000000
000000
000000
000000
000000
000000
000000
000000
000000
000000
000000
000000
000000
000000
000000
000000
000000
000000
000000
000000
000000
000000
000000
000000
000000
000000
000000
000000
000000
000000
ENDCHAR
STARTCHAR <unknown>
ENCODING 15
SWIDTH 42 0
DWIDTH 18 0
BBX 18 36 0 -10
BITMAP
000000
000000
000000
000000
000000
000000
000000
000000
000000
000000
000000
000000
000000
000000
000000
000000
000000
000000
000000
000000
000000
000000
000000
000000
000000
000000
000000
000000
000000
000000
000000
000000
000000
000000
000000
000000
ENDCHAR
STARTCHAR <unknown>
ENCODING 16
SWIDTH 42 0
DWIDTH 30 0
BBX 30 36 0 -10
BITMAP
00000000
00000000
00000000
00000000
00000000
00000000
00000000
00000000
00000000
00000000
00000000
00000000
00000000
00000000
00000000
00000000
00000000
00000000
00000000
00000000
00000000
00000000
00000000
00000000
00000000
00000000
00000000
00000000
00000000
00000000
00000000
00000000
00000000
00000000
00000000
00000000
ENDCHAR
STARTCHAR <unknown>
ENCODING 17
SWIDTH 42 0
DWIDTH 20 0
BBX 20 36 0 -10
BITMAP
000000
000000
000000
000000
000000
000000
000000
000000
000000
000000
000000
000000
000000
000000
000000
000000
000000
000000
000000
000000
000000
000000
000000
000000
000000
000000
000000
000000
000000
000000
000000
000000
000000
000000
000000
000000
ENDCHAR
STARTCHAR <unknown>
ENCODING 18
SWIDTH 42 0
DWIDTH 20 0
BBX 20 36 0 -10
BITMAP
000000
000000
000000
000000
000000
000000
000000
000000
000000
000000
000000
000000
000000
000000
000000
000000
000000
000000
000000
000000
000000
000000
000000
000000
000000
000000
000000
000000
000000
000000
000000
000000
000000
000000
000000
000000
ENDCHAR
STARTCHAR <unknown>
ENCODING 19
SWIDTH 42 0
DWIDTH 30 0
BBX 30 36 0 -10
BITMAP
00000000
00000000
00000000
00000000
00000000
00000000
00000000
00000000
00000000
00000000
00000000
00000000
00000000
00000000
00000000
00000000
00000000
00000000
00000000
00000000
00000000
00000000
00000000
00000000
00000000
00000000
00000000
00000000
00000000
00000000
00000000
00000000
00000000
00000000
00000000
00000000
ENDCHAR
STARTCHAR <unknown>
ENCODING 20
SWIDTH 42 0
DWIDTH 22 0
BBX 22 36 0 -10
BITMAP
000000
000000
000000
000000
000000
000000
000000
000000
000000
000000
000000
000000
000000
000000
000000
000000
000000
000000
000000
000000
000000
000000
000000
000000
000000
000000
000000
000000
000000
000000
000000
000000
000000
000000
000000
000000
ENDCHAR
STARTCHAR <unknown>
ENCODING 21
SWIDTH 42 0
DWIDTH 24 0
BBX 24 36 0 -10
BITMAP
000000
000000
000000
000000
000000
000000
000000
000000
000000
000000
000000
000000
000000
000000
000000
000000
000000
000000
000000
000000
000000
000000
000000
000000
000000
000000
000000
000000
000000
000000
000000
000000
000000
000000
000000
000000
ENDCHAR
STARTCHAR <unknown>
ENCODING 22
SWIDTH 42 0
DWIDTH 24 0
BBX 24 36 0 -10
BITMAP
000000
000000
000000
000000
000000
000000
000000
000000
000000
000000
000000
000000
000000
000000
000000
000000
000000
000000
000000
000000
000000
000000
000000
000000
000000
000000
000000
000000
000000
000000
000000
000000
000000
000000
000000
000000
ENDCHAR
STARTCHAR <unknown>
ENCODING 23
SWIDTH 42 0
DWIDTH 0 0
BBX 0 0 0 0
BITMAP
ENDCHAR
STARTCHAR <unknown>
ENCODING 24
SWIDTH 42 0
DWIDTH 24 0
BBX 24 36 0 -10
BITMAP
000000
000000
000000
000000
000000
000000
000000
000000
000000
000000
000000
000000
000000
000000
000000
000000
000000
000000
000000
000000
000000
000000
000000
000000
000000
000000
000000
000000
000000
000000
000000
000000
000000
000000
000000
000000
ENDCHAR
STARTCHAR <unknown>
ENCODING 25
SWIDTH 42 0
DWIDTH 20 0
BBX 20 36 0 -10
BITMAP
000000
000000
000000
000000
000000
000000
000000
000000
000000
000000
000000
000000
000000
000000
000000
000000
000000
000000
000000
000000
000000
000000
000000
000000
000000
000000
000000
000000
000000
000000
000000
000000
000000
000000
000000
000000
ENDCHAR
STARTCHAR <unknown>
ENCODING 26
SWIDTH 42 0
DWIDTH 0 0
BBX 0 0 0 0
BITMAP
ENDCHAR
STARTCHAR <unknown>
ENCODING 27
SWIDTH 42 0
DWIDTH 0 0
BBX 0 0 0 0
BITMAP
ENDCHAR
STARTCHAR <unknown>
ENCODING 28
SWIDTH 42 0
DWIDTH 0 0
BBX 0 0 0 0
BITMAP
ENDCHAR
STARTCHAR <unknown>
ENCODING 29
SWIDTH 42 0
DWIDTH 0 0
BBX 0 0 0 0
BITMAP
ENDCHAR
STARTCHAR <unknown>
ENCODING 30
SWIDTH 42 0
DWIDTH 0 0
BBX 0 0 0 0
BITMAP
ENDCHAR
STARTCHAR <unknown>
ENCODING 31
SWIDTH 42 0
DWIDTH 0 0
BBX 0 0 0 0
BITMAP
ENDCHAR
STARTCHAR <unknown>
ENCODING 32
SWIDTH 42 0
DWIDTH 18 0
BBX 18 36 0 -10
BITMAP
000000
000000
000000
000000
000000
000000
000000
000000
000000
000000
000000
000000
000000
000000
000000
000000
000000
000000
000000
000000
000000
000000
000000
000000
000000
000000
000000
000000
000000
000000
000000
000000
000000
000000
000000
000000
ENDCHAR
STARTCHAR <unknown>
ENCODING 33
SWIDTH 42 0
DWIDTH 18 0
BBX 18 36 0 -10
BITMAP
000000
000000
00C000
00C000
03F000
03F000
03F000
03F000
03F000
03F000
03F000
03F000
00C000
00C000
00C000
00C000
00C000
00C000
000000
000000
000000
000000
00C000
00C000
00C000
00C000
000000
000000
000000
000000
000000
000000
000000
000000
000000
000000
ENDCHAR
STARTCHAR <unknown>
ENCODING 34
SWIDTH 42 0
DWIDTH 18 0
BBX 18 36 0 -10
BITMAP
000000
000000
030C00
030C00
030C00
030C00
030C00
030C00
030C00
030C00
000000
000000
000000
000000
000000
000000
000000
000000
000000
000000
000000
000000
000000
000000
000000
000000
000000
000000
000000
000000
000000
000000
000000
000000
000000
000000
ENDCHAR
STARTCHAR <unknown>
ENCODING 35
SWIDTH 42 0
DWIDTH 18 0
BBX 18 36 0 -10
BITMAP
000000
000000
000000
000000
00C300
00C300
00C300
00C300
00C300
00C300
0FFFC0
0FFFC0
030C00
030C00
030C00
030C00
030C00
030C00
3FFF00
3FFF00
0C3000
0C3000
0C3000
0C3000
0C3000
0C3000
000000
000000
000000
000000
000000
000000
000000
000000
000000
000000
ENDCHAR
STARTCHAR <unknown>
ENCODING 36
SWIDTH 42 0
DWIDTH 18 0
BBX 18 36 0 -10
BITMAP
000000
000000
00C000
00C000
00C000
00C000
0FF300
0FF300
300F00
300F00
300300
300300
0C0000
0C0000
03C000
03C000
003C00
003C00
000300
000300
300300
300300
3C0300
3C0300
33FC00
33FC00
00C000
00C000
00C000
00C000
000000
000000
000000
000000
000000
000000
ENDCHAR
STARTCHAR <unknown>
ENCODING 37
SWIDTH 42 0
DWIDTH 18 0
BBX 18 36 0 -10
BITMAP
000000
000000
000000
000000
0F0000
0F0000
30C000
30C000
30C300
30C300
30CC00
30CC00
0F3000
0F3000
00C000
00C000
033C00
033C00
0CC300
0CC300
30C300
30C300
00C300
00C300
003C00
003C00
000000
000000
000000
000000
000000
000000
000000
000000
000000
000000
ENDCHAR
STARTCHAR <unknown>
ENCODING 38
SWIDTH 42 0
DWIDTH 18 0
BBX 18 36 0 -10
BITMAP
000000
000000
000000
000000
03C000
03C000
0C3000
0C3000
0C0000
0C0000
0C0000
0C0000
030000
030000
0CC300
0CC300
303C00
303C00
300C00
300C00
300C00
300C00
303300
303300
0FC3C0
0FC3C0
000000
000000
000000
000000
000000
000000
000000
000000
000000
000000
ENDCHAR
STARTCHAR <unknown>
ENCODING 39
SWIDTH 42 0
DWIDTH 18 0
BBX 18 36 0 -10
BITMAP
000000
000000
003000
003000
003000
003000
00C000
00C000
030000
030000
000000
000000
000000
000000
000000
000000
000000
000000
000000
000000
000000
000000
000000
000000
000000
000000
000000
000000
000000
000000
000000
000000
000000
000000
000000
000000
ENDCHAR
STARTCHAR <unknown>
ENCODING 40
SWIDTH 42 0
DWIDTH 18 0
BBX 18 36 0 -10
BITMAP
000000
000000
000C00
000C00
003000
003000
00C000
00C000
00C000
00C000
030000
030000
030000
030000
030000
030000
030000
030000
030000
030000
030000
030000
00C000
00C000
00C000
00C000
003000
003000
000C00
000C00
000000
000000
000000
000000
000000
000000
ENDCHAR
STARTCHAR <unknown>
ENCODING 41
SWIDTH 42 0
DWIDTH 18 0
BBX 18 36 0 -10
BITMAP
000000
000000
030000
030000
00C000
00C000
003000
003000
003000
003000
000C00
000C00
000C00
000C00
000C00
000C00
000C00
000C00
000C00
000C00
000C00
000C00
003000
003000
003000
003000
00C000
00C000
030000
030000
000000
000000
000000
000000
000000
000000
ENDCHAR
STARTCHAR <unknown>
ENCODING 42
SWIDTH 42 0
DWIDTH 18 0
BBX 18 36 0 -10
BITMAP
000000
000000
000000
000000
000000
000000
00C000
00C000
00C000
00C000
33F300
33F300
0FFC00
0FFC00
03F000
03F000
033000
033000
0C0C00
0C0C00
000000
000000
000000
000000
000000
000000
000000
000000
000000
000000
000000
000000
000000
000000
000000
000000
ENDCHAR
STARTCHAR <unknown>
ENCODING 43
SWIDTH 42 0
DWIDTH 18 0
BBX 18 36 0 -10
BITMAP
000000
000000
000000
000000
000000
000000
000000
000000
00C000
00C000
00C000
00C000
00C000
00C000
3FFF00
3FFF00
00C000
00C000
00C000
00C000
00C000
00C000
000000
000000
000000
000000
000000
000000
000000
000000
000000
000000
000000
000000
000000
000000
ENDCHAR
STARTCHAR <unknown>
ENCODING 44
SWIDTH 42 0
DWIDTH 18 0
BBX 18 36 0 -10
BITMAP
000000
000000
000000
000000
000000
000000
000000
000000
000000
000000
000000
000000
000000
000000
000000
000000
000000
000000
000000
000000
000000
000000
00F000
00F000
00F000
00F000
003000
003000
00C000
00C000
030000
030000
000000
000000
000000
000000
ENDCHAR
STARTCHAR <unknown>
ENCODING 45
SWIDTH 42 0
DWIDTH 18 0
BBX 18 36 0 -10
BITMAP
000000
000000
000000
000000
000000
000000
000000
000000
000000
000000
000000
000000
000000
000000
3FFF00
3FFF00
000000
000000
000000
000000
000000
000000
000000
000000
000000
000000
000000
000000
000000
000000
000000
000000
000000
000000
000000
000000
ENDCHAR
STARTCHAR <unknown>
ENCODING 46
SWIDTH 42 0
DWIDTH 18 0
BBX 18 36 0 -10
BITMAP
000000
000000
000000
000000
000000
000000
000000
000000
000000
000000
000000
000000
000000
000000
000000
000000
000000
000000
000000
000000
000000
000000
00F000
00F000
00F000
00F000
000000
000000
000000
000000
000000
000000
000000
000000
000000
000000
ENDCHAR
STARTCHAR <unknown>
ENCODING 47
SWIDTH 42 0
DWIDTH 18 0
BBX 18 36 0 -10
BITMAP
000000
000000
000300
000300
000C00
000C00
000C00
000C00
003000
003000
003000
003000
00C000
00C000
00C000
00C000
030000
030000
030000
030000
0C0000
0C0000
0C0000
0C0000
300000
300000
300000
300000
000000
000000
000000
000000
000000
000000
000000
000000
ENDCHAR
STARTCHAR <unknown>
ENCODING 48
SWIDTH 42 0
DWIDTH 18 0
BBX 18 36 0 -10
BITMAP
000000
000000
000000
000000
03FC00
03FC00
0C0300
0C0300
0C0300
0C0300
0C0300
0C0300
0C0300
0C0300
0C0300
0C0300
0C0300
0C0300
0C0300
0C0300
0C0300
0C0300
0C0300
0C0300
03FC00
03FC00
000000
000000
000000
000000
000000
000000
000000
000000
000000
000000
ENDCHAR
STARTCHAR <unknown>
ENCODING 49
SWIDTH 42 0
DWIDTH 18 0
BBX 18 36 0 -10
BITMAP
000000
000000
000000
000000
00C000
00C000
03C000
03C000
0CC000
0CC000
00C000
00C000
00C000
00C000
00C000
00C000
00C000
00C000
00C000
00C000
00C000
00C000
00C000
00C000
0FFC00
0FFC00
000000
000000
000000
000000
000000
000000
000000
000000
000000
000000
ENDCHAR
STARTCHAR <unknown>
ENCODING 50
SWIDTH 42 0
DWIDTH 18 0
BBX 18 36 0 -10
BITMAP
000000
000000
000000
000000
03FC00
03FC00
0C0F00
0C0F00
300300
300300
300300
300300
000C00
000C00
003000
003000
00C000
00C000
030000
030000
0C0000
0C0000
300300
300300
3FFF00
3FFF00
000000
000000
000000
000000
000000
000000
000000
000000
000000
000000
ENDCHAR
STARTCHAR <unknown>
ENCODING 51
SWIDTH 42 0
DWIDTH 18 0
BBX 18 36 0 -10
BITMAP
000000
000000
000000
000000
03FC00
03FC00
0C0F00
0C0F00
0C0300
0C0300
000300
000300
000C00
000C00
00FC00
00FC00
000F00
000F00
000300
000300
300300
300300
3C0C00
3C0C00
0FF000
0FF000
000000
000000
000000
000000
000000
000000
000000
000000
000000
000000
ENDCHAR
STARTCHAR <unknown>
ENCODING 52
SWIDTH 42 0
DWIDTH 18 0
BBX 18 36 0 -10
BITMAP
000000
000000
003000
003000
00C000
00C000
00C000
00C000
030C00
030C00
030C00
030C00
0C0C00
0C0C00
0C0C00
0C0C00
300C00
300C00
3FFF00
3FFF00
000C00
000C00
000C00
000C00
000C00
000C00
000000
000000
000000
000000
000000
000000
000000
000000
000000
000000
ENDCHAR
STARTCHAR <unknown>
ENCODING 53
SWIDTH 42 0
DWIDTH 18 0
BBX 18 36 0 -10
BITMAP
000000
000000
000000
000000
0FFF00
0FFF00
0C0000
0C0000
0C0000
0C0000
0C0000
0C0000
0FFC00
0FFC00
000F00
000F00
000300
000300
000300
000300
300300
300300
3C0C00
3C0C00
0FF000
0FF000
000000
000000
000000
000000
000000
000000
000000
000000
000000
000000
ENDCHAR
STARTCHAR <unknown>
ENCODING 54
SWIDTH 42 0
DWIDTH 18 0
BBX 18 36 0 -10
BITMAP
000000
000000
003C00
003C00
03C000
03C000
0C0000
0C0000
0C0000
0C0000
300000
300000
33FC00
33FC00
3C0F00
3C0F00
300300
300300
300300
300300
300300
300300
3C0C00
3C0C00
0FF000
0FF000
000000
000000
000000
000000
000000
000000
000000
000000
000000
000000
ENDCHAR
STARTCHAR <unknown>
ENCODING 55
SWIDTH 42 0
DWIDTH 18 0
BBX 18 36 0 -10
BITMAP
000000
000000
000000
000000
3FFF00
3FFF00
300F00
300F00
300C00
300C00
000C00
000C00
003000
003000
003000
003000
003000
003000
00C000
00C000
00C000
00C000
00C000
00C000
00C000
00C000
000000
000000
000000
000000
000000
000000
000000
000000
000000
000000
ENDCHAR
STARTCHAR <unknown>
ENCODING 56
SWIDTH 42 0
DWIDTH 18 0
BBX 18 36 0 -10
BITMAP
000000
000000
000000
000000
03F000
03F000
0C3C00
0C3C00
300C00
300C00
300C00
300C00
3C3000
3C3000
0FFC00
0FFC00
0C0F00
0C0F00
300300
300300
300300
300300
3C0C00
3C0C00
0FF000
0FF000
000000
000000
000000
000000
000000
000000
000000
000000
000000
000000
ENDCHAR
STARTCHAR <unknown>
ENCODING 57
SWIDTH 42 0
DWIDTH 18 0
BBX 18 36 0 -10
BITMAP
000000
000000
000000
000000
03FC00
03FC00
0C0F00
0C0F00
300300
300300
300300
300300
300300
300300
3C0F00
3C0F00
0FF300
0FF300
000300
000300
000C00
000C00
000C00
000C00
00F000
00F000
0F0000
0F0000
000000
000000
000000
000000
000000
000000
000000
000000
ENDCHAR
STARTCHAR <unknown>
ENCODING 58
SWIDTH 42 0
DWIDTH 18 0
BBX 18 36 0 -10
BITMAP
000000
000000
000000
000000
000000
000000
000000
000000
000000
000000
00F000
00F000
00F000
00F000
000000
000000
000000
000000
000000
000000
000000
000000
00F000
00F000
00F000
00F000
000000
000000
000000
000000
000000
000000
000000
000000
000000
000000
ENDCHAR
STARTCHAR <unknown>
ENCODING 59
SWIDTH 42 0
DWIDTH 18 0
BBX 18 36 0 -10
BITMAP
000000
000000
000000
000000
000000
000000
000000
000000
000000
000000
00F000
00F000
00F000
00F000
000000
000000
000000
000000
000000
000000
000000
000000
00F000
00F000
00F000
00F000
003000
003000
00C000
00C000
030000
030000
000000
000000
000000
000000
ENDCHAR
STARTCHAR <unknown>
ENCODING 60
SWIDTH 42 0
DWIDTH 18 0
BBX 18 36 0 -10
BITMAP
000000
000000
000000
000000
000300
000300
000C00
000C00
003000
003000
00C000
00C000
030000
030000
0C0000
0C0000
030000
030000
00C000
00C000
003000
003000
000C00
000C00
000300
000300
000000
000000
000000
000000
000000
000000
000000
000000
000000
000000
ENDCHAR
STARTCHAR <unknown>
ENCODING 61
SWIDTH 42 0
DWIDTH 18 0
BBX 18 36 0 -10
BITMAP
000000
000000
000000
000000
000000
000000
000000
000000
000000
000000
000000
000000
3FFF00
3FFF00
000000
000000
3FFF00
3FFF00
000000
000000
000000
000000
000000
000000
000000
000000
000000
000000
000000
000000
000000
000000
000000
000000
000000
000000
ENDCHAR
STARTCHAR <unknown>
ENCODING 62
SWIDTH 42 0
DWIDTH 18 0
BBX 18 36 0 -10
BITMAP
000000
000000
000000
000000
0C0000
0C0000
030000
030000
00C000
00C000
003000
003000
000C00
000C00
000300
000300
000C00
000C00
003000
003000
00C000
00C000
030000
030000
0C0000
0C0000
000000
000000
000000
000000
000000
000000
000000
000000
000000
000000
ENDCHAR
STARTCHAR <unknown>
ENCODING 63
SWIDTH 42 0
DWIDTH 18 0
BBX 18 36 0 -10
BITMAP
000000
000000
03FC00
03FC00
0C0F00
0C0F00
300300
300300
300300
300300
000C00
000C00
003000
003000
00C000
00C000
00C000
00C000
000000
000000
000000
000000
00C000
00C000
00C000
00C000
000000
000000
000000
000000
000000
000000
000000
000000
000000
000000
ENDCHAR
STARTCHAR <unknown>
ENCODING 64
SWIDTH 42 0
DWIDTH 18 0
BBX 18 36 0 -10
BITMAP
000000
000000
000000
000000
00F000
00F000
0F0C00
0F0C00
0C0300
0C0300
303F00
303F00
30C300
30C300
30C300
30C300
303C00
303C00
300000
300000
0C00C0
0C00C0
0F0300
0F0300
00FC00
00FC00
000000
000000
000000
000000
000000
000000
000000
000000
000000
000000
ENDCHAR
STARTCHAR <unknown>
ENCODING 65
SWIDTH 42 0
DWIDTH 18 0
BBX 18 36 0 -10
BITMAP
000000
000000
00C000
00C000
00C000
00C000
033000
033000
033000
033000
033000
033000
0C0C00
0C0C00
0C0C00
0C0C00
0C0C00
0C0C00
3FFF00
3FFF00
300300
300300
300300
300300
FC0FC0
FC0FC0
000000
000000
000000
000000
000000
000000
000000
000000
000000
000000
ENDCHAR
STARTCHAR <unknown>
ENCODING 66
SWIDTH 42 0
DWIDTH 18 0
BBX 18 36 0 -10
BITMAP
000000
000000
3FF000
3FF000
0C0C00
0C0C00
0C0C00
0C0C00
0C0C00
0C0C00
0C3C00
0C3C00
0FF000
0FF000
0C0C00
0C0C00
0C0300
0C0300
0C0300
0C0300
0C0300
0C0300
0C0F00
0C0F00
3FFC00
3FFC00
000000
000000
000000
000000
000000
000000
000000
000000
000000
000000
ENDCHAR
STARTCHAR <unknown>
ENCODING 67
SWIDTH 42 0
DWIDTH 18 0
BBX 18 36 0 -10
BITMAP
000000
000000
03F300
03F300
0C0F00
0C0F00
300300
300300
300000
300000
300000
300000
300000
300000
300000
300000
300000
300000
300300
300300
300300
300300
3C0C00
3C0C00
0FF000
0FF000
000000
000000
000000
000000
000000
000000
000000
000000
000000
000000
ENDCHAR
STARTCHAR <unknown>
ENCODING 68
SWIDTH 42 0
DWIDTH 18 0
BBX 18 36 0 -10
BITMAP
000000
000000
3FFC00
3FFC00
0C0F00
0C0F00
0C0300
0C0300
0C0300
0C0300
0C0300
0C0300
0C0300
0C0300
0C0300
0C0300
0C0300
0C0300
0C0300
0C0300
0C0300
0C0300
0C0C00
0C0C00
3FF000
3FF000
000000
000000
000000
000000
000000
000000
000000
000000
000000
000000
ENDCHAR
STARTCHAR <unknown>
ENCODING 69
SWIDTH 42 0
DWIDTH 18 0
BBX 18 36 0 -10
BITMAP
000000
000000
3FFF00
3FFF00
0C0300
0C0300
0C0000
0C0000
0C0000
0C0000
0C0000
0C0000
0FFC00
0FFC00
0C0000
0C0000
0C0000
0C0000
0C0000
0C0000
0C0000
0C0000
0C0300
0C0300
3FFF00
3FFF00
000000
000000
000000
000000
000000
000000
000000
000000
000000
000000
ENDCHAR
STARTCHAR <unknown>
ENCODING 70
SWIDTH 42 0
DWIDTH 18 0
BBX 18 36 0 -10
BITMAP
000000
000000
3FFF00
3FFF00
0C0300
0C0300
0C0000
0C0000
0C0000
0C0000
0C0000
0C0000
0FFC00
0FFC00
0C0000
0C0000
0C0000
0C0000
0C0000
0C0000
0C0000
0C0000
0C0000
0C0000
3F0000
3F0000
000000
000000
000000
000000
000000
000000
000000
000000
000000
000000
ENDCHAR
STARTCHAR <unknown>
ENCODING 71
SWIDTH 42 0
DWIDTH 18 0
BBX 18 36 0 -10
BITMAP
000000
000000
03F300
03F300
0C0F00
0C0F00
300300
300300
300000
300000
300000
300000
300000
300000
300000
300000
300FC0
300FC0
300300
300300
300300
300300
3C0F00
3C0F00
0FF300
0FF300
000000
000000
000000
000000
000000
000000
000000
000000
000000
000000
ENDCHAR
STARTCHAR <unknown>
ENCODING 72
SWIDTH 42 0
DWIDTH 18 0
BBX 18 36 0 -10
BITMAP
000000
000000
3F0FC0
3F0FC0
0C0300
0C0300
0C0300
0C0300
0C0300
0C0300
0C0300
0C0300
0FFF00
0FFF00
0C0300
0C0300
0C0300
0C0300
0C0300
0C0300
0C0300
0C0300
0C0300
0C0300
3F0FC0
3F0FC0
000000
000000
000000
000000
000000
000000
000000
000000
000000
000000
ENDCHAR
STARTCHAR <unknown>
ENCODING 73
SWIDTH 42 0
DWIDTH 18 0
BBX 18 36 0 -10
BITMAP
000000
000000
0FFC00
0FFC00
00C000
00C000
00C000
00C000
00C000
00C000
00C000
00C000
00C000
00C000
00C000
00C000
00C000
00C000
00C000
00C000
00C000
00C000
00C000
00C000
0FFC00
0FFC00
000000
000000
000000
000000
000000
000000
000000
000000
000000
000000
ENDCHAR
STARTCHAR <unknown>
ENCODING 74
SWIDTH 42 0
DWIDTH 18 0
BBX 18 36 0 -10
BITMAP
000000
000000
00FFC0
00FFC0
000C00
000C00
000C00
000C00
000C00
000C00
000C00
000C00
000C00
000C00
000C00
000C00
000C00
000C00
000C00
000C00
300C00
300C00
3C3C00
3C3C00
0FF000
0FF000
000000
000000
000000
000000
000000
000000
000000
000000
000000
000000
ENDCHAR
STARTCHAR <unknown>
ENCODING 75
SWIDTH 42 0
DWIDTH 18 0
BBX 18 36 0 -10
BITMAP
000000
000000
3F03C0
3F03C0
0C0300
0C0300
0C0C00
0C0C00
0C3000
0C3000
0CC000
0CC000
0F3000
0F3000
0C3000
0C3000
0C0C00
0C0C00
0C0C00
0C0C00
0C0300
0C0300
0C0300
0C0300
3F0FC0
3F0FC0
000000
000000
000000
000000
000000
000000
000000
000000
000000
000000
ENDCHAR
STARTCHAR <unknown>
ENCODING 76
SWIDTH 42 0
DWIDTH 18 0
BBX 18 36 0 -10
BITMAP
000000
000000
3F0000
3F0000
0C0000
0C0000
0C0000
0C0000
0C0000
0C0000
0C0000
0C0000
0C0000
0C0000
0C0000
0C0000
0C0000
0C0000
0C0000
0C0000
0C0000
0C0000
0C0300
0C0300
3FFF00
3FFF00
000000
000000
000000
000000
000000
000000
000000
000000
000000
000000
ENDCHAR
STARTCHAR <unknown>
ENCODING 77
SWIDTH 42 0
DWIDTH 18 0
BBX 18 36 0 -10
BITMAP
000000
000000
F003C0
F003C0
300300
300300
3C0F00
3C0F00
3C0F00
3C0F00
333300
333300
333300
333300
30C300
30C300
30C300
30C300
300300
300300
300300
300300
300300
300300
FC0FC0
FC0FC0
000000
000000
000000
000000
000000
000000
000000
000000
000000
000000
ENDCHAR
STARTCHAR <unknown>
ENCODING 78
SWIDTH 42 0
DWIDTH 18 0
BBX 18 36 0 -10
BITMAP
000000
000000
3C0FC0
3C0FC0
0C0300
0C0300
0F0300
0F0300
0F0300
0F0300
0CC300
0CC300
0CC300
0CC300
0C3300
0C3300
0C3300
0C3300
0C0F00
0C0F00
0C0F00
0C0F00
0C0300
0C0300
3F0300
3F0300
000000
000000
000000
000000
000000
000000
000000
000000
000000
000000
ENDCHAR
STARTCHAR <unknown>
ENCODING 79
SWIDTH 42 0
DWIDTH 18 0
BBX 18 36 0 -10
BITMAP
000000
000000
03FC00
03FC00
0C0F00
0C0F00
300300
300300
300300
300300
300300
300300
300300
300300
300300
300300
300300
300300
300300
300300
300300
300300
3C0C00
3C0C00
0FF000
0FF000
000000
000000
000000
000000
000000
000000
000000
000000
000000
000000
ENDCHAR
STARTCHAR <unknown>
ENCODING 80
SWIDTH 42 0
DWIDTH 18 0
BBX 18 36 0 -10
BITMAP
000000
000000
3FFC00
3FFC00
0C0F00
0C0F00
0C0300
0C0300
0C0300
0C0300
0C0300
0C0300
0C0C00
0C0C00
0CF000
0CF000
0C0000
0C0000
0C0000
0C0000
0C0000
0C0000
0C0000
0C0000
3F0000
3F0000
000000
000000
000000
000000
000000
000000
000000
000000
000000
000000
ENDCHAR
STARTCHAR <unknown>
ENCODING 81
SWIDTH 42 0
DWIDTH 18 0
BBX 18 36 0 -10
BITMAP
000000
000000
03FC00
03FC00
0C0F00
0C0F00
300300
300300
300300
300300
300300
300300
300300
300300
300300
300300
300300
300300
300300
300300
300300
300300
3C0C00
3C0C00
0FF000
0FF000
03C000
03C000
00C000
00C000
003000
003000
000F00
000F00
000000
000000
ENDCHAR
STARTCHAR <unknown>
ENCODING 82
SWIDTH 42 0
DWIDTH 18 0
BBX 18 36 0 -10
BITMAP
000000
000000
3FFC00
3FFC00
0C0F00
0C0F00
0C0300
0C0300
0C0300
0C0300
0C0300
0C0300
0C0C00
0C0C00
0FF000
0FF000
0C0C00
0C0C00
0C0C00
0C0C00
0C0300
0C0300
0C0300
0C0300
3F0FC0
3F0FC0
000000
000000
000000
000000
000000
000000
000000
000000
000000
000000
ENDCHAR
STARTCHAR <unknown>
ENCODING 83
SWIDTH 42 0
DWIDTH 18 0
BBX 18 36 0 -10
BITMAP
000000
000000
0FF300
0FF300
3C0F00
3C0F00
300300
300300
300000
300000
3C0000
3C0000
0FC000
0FC000
00FC00
00FC00
000F00
000F00
000300
000300
300300
300300
3C0F00
3C0F00
33FC00
33FC00
000000
000000
000000
000000
000000
000000
000000
000000
000000
000000
ENDCHAR
STARTCHAR <unknown>
ENCODING 84
SWIDTH 42 0
DWIDTH 18 0
BBX 18 36 0 -10
BITMAP
000000
000000
FFFFC0
FFFFC0
C0C0C0
C0C0C0
00C000
00C000
00C000
00C000
00C000
00C000
00C000
00C000
00C000
00C000
00C000
00C000
00C000
00C000
00C000
00C000
00C000
00C000
0FFC00
0FFC00
000000
000000
000000
000000
000000
000000
000000
000000
000000
000000
ENDCHAR
STARTCHAR <unknown>
ENCODING 85
SWIDTH 42 0
DWIDTH 18 0
BBX 18 36 0 -10
BITMAP
000000
000000
3F0FC0
3F0FC0
0C0300
0C0300
0C0300
0C0300
0C0300
0C0300
0C0300
0C0300
0C0300
0C0300
0C0300
0C0300
0C0300
0C0300
0C0300
0C0300
0C0300
0C0300
0F0C00
0F0C00
03F000
03F000
000000
000000
000000
000000
000000
000000
000000
000000
000000
000000
ENDCHAR
STARTCHAR <unknown>
ENCODING 86
SWIDTH 42 0
DWIDTH 18 0
BBX 18 36 0 -10
BITMAP
000000
000000
FC0FC0
FC0FC0
300300
300300
300300
300300
0C0C00
0C0C00
0C0C00
0C0C00
0C0C00
0C0C00
033000
033000
033000
033000
033000
033000
00C000
00C000
00C000
00C000
00C000
00C000
000000
000000
000000
000000
000000
000000
000000
000000
000000
000000
ENDCHAR
STARTCHAR <unknown>
ENCODING 87
SWIDTH 42 0
DWIDTH 18 0
BBX 18 36 0 -10
BITMAP
000000
000000
FC0FC0
FC0FC0
300300
300300
30C300
30C300
30C300
30C300
30C300
30C300
333300
333300
333300
333300
0F3C00
0F3C00
0C0C00
0C0C00
0C0C00
0C0C00
0C0C00
0C0C00
0C0C00
0C0C00
000000
000000
000000
000000
000000
000000
000000
000000
000000
000000
ENDCHAR
STARTCHAR <unknown>
ENCODING 88
SWIDTH 42 0
DWIDTH 18 0
BBX 18 36 0 -10
BITMAP
000000
000000
3F0FC0
3F0FC0
0C0300
0C0300
0C0300
0C0300
030C00
030C00
030C00
030C00
00F000
00F000
00F000
00F000
030C00
030C00
030C00
030C00
0C0300
0C0300
0C0300
0C0300
3F0FC0
3F0FC0
000000
000000
000000
000000
000000
000000
000000
000000
000000
000000
ENDCHAR
STARTCHAR <unknown>
ENCODING 89
SWIDTH 42 0
DWIDTH 18 0
BBX 18 36 0 -10
BITMAP
000000
000000
FC0FC0
FC0FC0
300300
300300
0C0C00
0C0C00
0C0C00
0C0C00
033000
033000
033000
033000
00C000
00C000
00C000
00C000
00C000
00C000
00C000
00C000
00C000
00C000
03F000
03F000
000000
000000
000000
000000
000000
000000
000000
000000
000000
000000
ENDCHAR
STARTCHAR <unknown>
ENCODING 90
SWIDTH 42 0
DWIDTH 18 0
BBX 18 36 0 -10
BITMAP
000000
000000
3FFF00
3FFF00
300C00
300C00
300C00
300C00
003000
003000
003000
003000
00C000
00C000
00C000
00C000
030000
030000
030000
030000
0C0300
0C0300
0C0300
0C0300
3FFF00
3FFF00
000000
000000
000000
000000
000000
000000
000000
000000
000000
000000
ENDCHAR
STARTCHAR <unknown>
ENCODING 91
SWIDTH 42 0
DWIDTH 18 0
BBX 18 36 0 -10
BITMAP
000000
000000
03FC00
03FC00
030000
030000
030000
030000
030000
030000
030000
030000
030000
030000
030000
030000
030000
030000
030000
030000
030000
030000
030000
030000
030000
030000
030000
030000
03FC00
03FC00
000000
000000
000000
000000
000000
000000
ENDCHAR
STARTCHAR <unknown>
ENCODING 92
SWIDTH 42 0
DWIDTH 18 0
BBX 18 36 0 -10
BITMAP
000000
000000
300000
300000
0C0000
0C0000
0C0000
0C0000
030000
030000
030000
030000
00C000
00C000
00C000
00C000
003000
003000
003000
003000
000C00
000C00
000C00
000C00
000300
000300
000300
000300
000000
000000
000000
000000
000000
000000
000000
000000
ENDCHAR
STARTCHAR <unknown>
ENCODING 93
SWIDTH 42 0
DWIDTH 18 0
BBX 18 36 0 -10
BITMAP
000000
000000
0FF000
0FF000
003000
003000
003000
003000
003000
003000
003000
003000
003000
003000
003000
003000
003000
003000
003000
003000
003000
003000
003000
003000
003000
003000
003000
003000
0FF000
0FF000
000000
000000
000000
000000
000000
000000
ENDCHAR
STARTCHAR <unknown>
ENCODING 94
SWIDTH 42 0
DWIDTH 18 0
BBX 18 36 0 -10
BITMAP
000000
000000
000000
000000
00C000
00C000
033000
033000
0C0C00
0C0C00
300300
300300
000000
000000
000000
000000
000000
000000
000000
000000
000000
000000
000000
000000
000000
000000
000000
000000
000000
000000
000000
000000
000000
000000
000000
000000
ENDCHAR
STARTCHAR <unknown>
ENCODING 95
SWIDTH 42 0
DWIDTH 18 0
BBX 18 36 0 -10
BITMAP
000000
000000
000000
000000
000000
000000
000000
000000
000000
000000
000000
000000
000000
000000
000000
000000
000000
000000
000000
000000
000000
000000
000000
000000
000000
000000
3FFFC0
3FFFC0
000000
000000
000000
000000
000000
000000
000000
000000
ENDCHAR
STARTCHAR <unknown>
ENCODING 96
SWIDTH 42 0
DWIDTH 18 0
BBX 18 36 0 -10
BITMAP
000000
000000
030000
030000
030000
030000
00C000
00C000
003000
003000
000000
000000
000000
000000
000000
000000
000000
000000
000000
000000
000000
000000
000000
000000
000000
000000
000000
000000
000000
000000
000000
000000
000000
000000
000000
000000
ENDCHAR
STARTCHAR <unknown>
ENCODING 97
SWIDTH 42 0
DWIDTH 18 0
BBX 18 36 0 -10
BITMAP
000000
000000
000000
000000
000000
000000
000000
000000
000000
000000
03F000
03F000
0C3C00
0C3C00
000C00
000C00
03FC00
03FC00
0C0C00
0C0C00
300C00
300C00
3C3C00
3C3C00
0FCF00
0FCF00
000000
000000
000000
000000
000000
000000
000000
000000
000000
000000
ENDCHAR
STARTCHAR <unknown>
ENCODING 98
SWIDTH 42 0
DWIDTH 18 0
BBX 18 36 0 -10
BITMAP
000000
000000
3C0000
3C0000
0C0000
0C0000
0C0000
0C0000
0C0000
0C0000
0CFC00
0CFC00
0F0F00
0F0F00
0C0300
0C0300
0C0300
0C0300
0C0300
0C0300
0C0300
0C0300
0F0C00
0F0C00
0CF000
0CF000
000000
000000
000000
000000
000000
000000
000000
000000
000000
000000
ENDCHAR
STARTCHAR <unknown>
ENCODING 99
SWIDTH 42 0
DWIDTH 18 0
BBX 18 36 0 -10
BITMAP
000000
000000
000000
000000
000000
000000
000000
000000
000000
000000
03F300
03F300
0C0F00
0C0F00
300300
300300
300000
300000
300000
300000
300300
300300
3C0C00
3C0C00
0FF000
0FF000
000000
000000
000000
000000
000000
000000
000000
000000
000000
000000
ENDCHAR
STARTCHAR <unknown>
ENCODING 100
SWIDTH 42 0
DWIDTH 18 0
BBX 18 36 0 -10
BITMAP
000000
000000
003C00
003C00
000C00
000C00
000C00
000C00
000C00
000C00
03CC00
03CC00
0C3C00
0C3C00
300C00
300C00
300C00
300C00
300C00
300C00
300C00
300C00
3C3C00
3C3C00
0FCF00
0FCF00
000000
000000
000000
000000
000000
000000
000000
000000
000000
000000
ENDCHAR
STARTCHAR <unknown>
ENCODING 101
SWIDTH 42 0
DWIDTH 18 0
BBX 18 36 0 -10
BITMAP
000000
000000
000000
000000
000000
000000
000000
000000
000000
000000
03FC00
03FC00
0C0F00
0C0F00
300300
300300
3FFC00
3FFC00
300000
300000
300300
300300
3C0C00
3C0C00
0FF000
0FF000
000000
000000
000000
000000
000000
000000
000000
000000
000000
000000
ENDCHAR
STARTCHAR <unknown>
ENCODING 102
SWIDTH 42 0
DWIDTH 18 0
BBX 18 36 0 -10
BITMAP
000000
000000
00FF00
00FF00
03C0C0
03C0C0
030000
030000
030000
030000
3FFC00
3FFC00
030000
030000
030000
030000
030000
030000
030000
030000
030000
030000
030000
030000
3FF000
3FF000
000000
000000
000000
000000
000000
000000
000000
000000
000000
000000
ENDCHAR
STARTCHAR <unknown>
ENCODING 103
SWIDTH 42 0
DWIDTH 18 0
BBX 18 36 0 -10
BITMAP
000000
000000
000000
000000
000000
000000
000000
000000
000000
000000
03FCC0
03FCC0
0F03C0
0F03C0
0C0300
0C0300
0C0F00
0C0F00
0FFC00
0FFC00
3C0000
3C0000
300000
300000
0FFF00
0FFF00
3C00C0
3C00C0
3000C0
3000C0
3003C0
3003C0
0FFF00
0FFF00
000000
000000
ENDCHAR
STARTCHAR <unknown>
ENCODING 104
SWIDTH 42 0
DWIDTH 18 0
BBX 18 36 0 -10
BITMAP
000000
000000
3C0000
3C0000
0C0000
0C0000
0C0000
0C0000
0C0000
0C0000
0CFC00
0CFC00
0F0F00
0F0F00
0C0300
0C0300
0C0300
0C0300
0C0300
0C0300
0C0300
0C0300
0C0300
0C0300
3F0FC0
3F0FC0
000000
000000
000000
000000
000000
000000
000000
000000
000000
000000
ENDCHAR
STARTCHAR <unknown>
ENCODING 105
SWIDTH 42 0
DWIDTH 18 0
BBX 18 36 0 -10
BITMAP
000000
000000
00C000
00C000
00C000
00C000
000000
000000
000000
000000
0FC000
0FC000
00C000
00C000
00C000
00C000
00C000
00C000
00C000
00C000
00C000
00C000
00C000
00C000
0FFC00
0FFC00
000000
000000
000000
000000
000000
000000
000000
000000
000000
000000
ENDCHAR
STARTCHAR <unknown>
ENCODING 106
SWIDTH 42 0
DWIDTH 18 0
BBX 18 36 0 -10
BITMAP
000000
000000
003000
003000
003000
003000
000000
000000
000000
000000
03F000
03F000
003000
003000
003000
003000
003000
003000
003000
003000
003000
003000
003000
003000
003000
003000
003000
003000
303000
303000
3C3000
3C3000
0FC000
0FC000
000000
000000
ENDCHAR
STARTCHAR <unknown>
ENCODING 107
SWIDTH 42 0
DWIDTH 18 0
BBX 18 36 0 -10
BITMAP
000000
000000
3C0000
3C0000
0C0000
0C0000
0C0000
0C0000
0C0000
0C0000
0C0F00
0C0F00
0C0C00
0C0C00
0C3000
0C3000
0CC000
0CC000
0F3000
0F3000
0C0C00
0C0C00
0C0300
0C0300
3F0FC0
3F0FC0
000000
000000
000000
000000
000000
000000
000000
000000
000000
000000
ENDCHAR
STARTCHAR <unknown>
ENCODING 108
SWIDTH 42 0
DWIDTH 18 0
BBX 18 36 0 -10
BITMAP
000000
000000
0FC000
0FC000
00C000
00C000
00C000
00C000
00C000
00C000
00C000
00C000
00C000
00C000
00C000
00C000
00C000
00C000
00C000
00C000
00C000
00C000
00C000
00C000
0FFC00
0FFC00
000000
000000
000000
000000
000000
000000
000000
000000
000000
000000
ENDCHAR
STARTCHAR <unknown>
ENCODING 109
SWIDTH 42 0
DWIDTH 18 0
BBX 18 36 0 -10
BITMAP
000000
000000
000000
000000
000000
000000
000000
000000
000000
000000
C30C00
C30C00
3CF300
3CF300
30C300
30C300
30C300
30C300
30C300
30C300
30C300
30C300
30C300
30C300
FCF3C0
FCF3C0
000000
000000
000000
000000
000000
000000
000000
000000
000000
000000
ENDCHAR
STARTCHAR <unknown>
ENCODING 110
SWIDTH 42 0
DWIDTH 18 0
BBX 18 36 0 -10
BITMAP
000000
000000
000000
000000
000000
000000
000000
000000
000000
000000
3CFC00
3CFC00
0F0F00
0F0F00
0C0300
0C0300
0C0300
0C0300
0C0300
0C0300
0C0300
0C0300
0C0300
0C0300
3F0FC0
3F0FC0
000000
000000
000000
000000
000000
000000
000000
000000
000000
000000
ENDCHAR
STARTCHAR <unknown>
ENCODING 111
SWIDTH 42 0
DWIDTH 18 0
BBX 18 36 0 -10
BITMAP
000000
000000
000000
000000
000000
000000
000000
000000
000000
000000
03FC00
03FC00
0C0F00
0C0F00
300300
300300
300300
300300
300300
300300
300300
300300
3C0C00
3C0C00
0FF000
0FF000
000000
000000
000000
000000
000000
000000
000000
000000
000000
000000
ENDCHAR
STARTCHAR <unknown>
ENCODING 112
SWIDTH 42 0
DWIDTH 18 0
BBX 18 36 0 -10
BITMAP
000000
000000
000000
000000
000000
000000
000000
000000
000000
000000
3CFC00
3CFC00
0F0F00
0F0F00
0C0300
0C0300
0C0300
0C0300
0C0300
0C0300
0C0300
0C0300
0F0C00
0F0C00
0CF000
0CF000
0C0000
0C0000
0C0000
0C0000
0C0000
0C0000
3F0000
3F0000
000000
000000
ENDCHAR
STARTCHAR <unknown>
ENCODING 113
SWIDTH 42 0
DWIDTH 18 0
BBX 18 36 0 -10
BITMAP
000000
000000
000000
000000
000000
000000
000000
000000
000000
000000
03F300
03F300
0C3C00
0C3C00
300C00
300C00
300C00
300C00
300C00
300C00
300C00
300C00
3C3C00
3C3C00
0FCC00
0FCC00
000C00
000C00
000C00
000C00
000C00
000C00
003F00
003F00
000000
000000
ENDCHAR
STARTCHAR <unknown>
ENCODING 114
SWIDTH 42 0
DWIDTH 18 0
BBX 18 36 0 -10
BITMAP
000000
000000
000000
000000
000000
000000
000000
000000
000000
000000
3CFC00
3CFC00
0F0300
0F0300
0C0000
0C0000
0C0000
0C0000
0C0000
0C0000
0C0000
0C0000
0C0000
0C0000
3F0000
3F0000
000000
000000
000000
000000
000000
000000
000000
000000
000000
000000
ENDCHAR
STARTCHAR <unknown>
ENCODING 115
SWIDTH 42 0
DWIDTH 18 0
BBX 18 36 0 -10
BITMAP
000000
000000
000000
000000
000000
000000
000000
000000
000000
000000
03F300
03F300
0C0F00
0C0F00
0C0300
0C0300
03C000
03C000
003C00
003C00
300300
300300
3C0300
3C0300
33FC00
33FC00
000000
000000
000000
000000
000000
000000
000000
000000
000000
000000
ENDCHAR
STARTCHAR <unknown>
ENCODING 116
SWIDTH 42 0
DWIDTH 18 0
BBX 18 36 0 -10
BITMAP
000000
000000
030000
030000
030000
030000
030000
030000
030000
030000
3FFC00
3FFC00
030000
030000
030000
030000
030000
030000
030000
030000
030300
030300
03C300
03C300
00FC00
00FC00
000000
000000
000000
000000
000000
000000
000000
000000
000000
000000
ENDCHAR
STARTCHAR <unknown>
ENCODING 117
SWIDTH 42 0
DWIDTH 18 0
BBX 18 36 0 -10
BITMAP
000000
000000
000000
000000
000000
000000
000000
000000
000000
000000
3C0F00
3C0F00
0C0300
0C0300
0C0300
0C0300
0C0300
0C0300
0C0300
0C0300
0C0300
0C0300
0F0F00
0F0F00
03F3C0
03F3C0
000000
000000
000000
000000
000000
000000
000000
000000
000000
000000
ENDCHAR
STARTCHAR <unknown>
ENCODING 118
SWIDTH 42 0
DWIDTH 18 0
BBX 18 36 0 -10
BITMAP
000000
000000
000000
000000
000000
000000
000000
000000
000000
000000
3F3F00
3F3F00
0C0C00
0C0C00
0C0C00
0C0C00
033000
033000
033000
033000
033000
033000
00C000
00C000
00C000
00C000
000000
000000
000000
000000
000000
000000
000000
000000
000000
000000
ENDCHAR
STARTCHAR <unknown>
ENCODING 119
SWIDTH 42 0
DWIDTH 18 0
BBX 18 36 0 -10
BITMAP
000000
000000
000000
000000
000000
000000
000000
000000
000000
000000
FC0FC0
FC0FC0
30C300
30C300
30C300
30C300
33F300
33F300
0F3C00
0F3C00
0C0C00
0C0C00
0C0C00
0C0C00
0C0C00
0C0C00
000000
000000
000000
000000
000000
000000
000000
000000
000000
000000
ENDCHAR
STARTCHAR <unknown>
ENCODING 120
SWIDTH 42 0
DWIDTH 18 0
BBX 18 36 0 -10
BITMAP
000000
000000
000000
000000
000000
000000
000000
000000
000000
000000
3F0FC0
3F0FC0
0C0300
0C0300
030C00
030C00
00F000
00F000
00F000
00F000
030C00
030C00
0C0300
0C0300
3F0FC0
3F0FC0
000000
000000
000000
000000
000000
000000
000000
000000
000000
000000
ENDCHAR
STARTCHAR <unknown>
ENCODING 121
SWIDTH 42 0
DWIDTH 18 0
BBX 18 36 0 -10
BITMAP
000000
000000
000000
000000
000000
000000
000000
000000
000000
000000
3F0FC0
3F0FC0
0C0300
0C0300
0C0300
0C0300
030C00
030C00
030C00
030C00
00CC00
00CC00
00F000
00F000
003000
003000
00C000
00C000
00C000
00C000
030000
030000
3C0000
3C0000
000000
000000
ENDCHAR
STARTCHAR <unknown>
ENCODING 122
SWIDTH 42 0
DWIDTH 18 0
BBX 18 36 0 -10
BITMAP
000000
000000
000000
000000
000000
000000
000000
000000
000000
000000
3FFF00
3FFF00
300C00
300C00
003000
003000
00C000
00C000
030000
030000
0C0000
0C0000
300300
300300
3FFF00
3FFF00
000000
000000
000000
000000
000000
000000
000000
000000
000000
000000
ENDCHAR
STARTCHAR <unknown>
ENCODING 123
SWIDTH 42 0
DWIDTH 18 0
BBX 18 36 0 -10
BITMAP
000000
000000
003F00
003F00
00C000
00C000
00C000
00C000
00C000
00C000
00C000
00C000
00C000
00C000
0F0000
0F0000
00C000
00C000
00C000
00C000
00C000
00C000
00C000
00C000
00C000
00C000
00C000
00C000
003F00
003F00
000000
000000
000000
000000
000000
000000
ENDCHAR
STARTCHAR <unknown>
ENCODING 124
SWIDTH 42 0
DWIDTH 18 0
BBX 18 36 0 -10
BITMAP
000000
000000
00C000
00C000
00C000
00C000
00C000
00C000
00C000
00C000
00C000
00C000
00C000
00C000
00C000
00C000
00C000
00C000
00C000
00C000
00C000
00C000
00C000
00C000
00C000
00C000
00C000
00C000
00C000
00C000
000000
000000
000000
000000
000000
000000
ENDCHAR
STARTCHAR <unknown>
ENCODING 125
SWIDTH 42 0
DWIDTH 18 0
BBX 18 36 0 -10
BITMAP
000000
000000
0FC000
0FC000
003000
003000
003000
003000
003000
003000
003000
003000
003000
003000
000F00
000F00
003000
003000
003000
003000
003000
003000
003000
003000
003000
003000
003000
003000
0FC000
0FC000
000000
000000
000000
000000
000000
000000
ENDCHAR
STARTCHAR <unknown>
ENCODING 126
SWIDTH 42 0
DWIDTH 18 0
BBX 18 36 0 -10
BITMAP
000000
000000
000000
000000
0F0300
0F0300
30C300
30C300
303C00
303C00
000000
000000
000000
000000
000000
000000
000000
000000
000000
000000
000000
000000
000000
000000
000000
000000
000000
000000
000000
000000
000000
000000
000000
000000
000000
000000
ENDCHAR
STARTCHAR <unknown>
ENCODING 127
SWIDTH 42 0
DWIDTH 22 0
BBX 22 36 0 -10
BITMAP
000000
000000
000000
000000
000000
000000
000000
000000
000000
000000
000000
000000
000000
000000
000000
000000
000000
000000
000000
000000
000000
000000
000000
000000
000000
000000
000000
000000
000000
000000
000000
000000
000000
000000
000000
000000
ENDCHAR
STARTCHAR <unknown>
ENCODING 128
SWIDTH 42 0
DWIDTH 24 0
BBX 24 36 0 -10
BITMAP
000000
000000
000000
000000
000000
000000
000000
000000
000000
000000
0FFFFC
0FFFFC
3C0000
3C0000
300000
300000
300000
300000
3C0000
3C0000
0FFFFC
0FFFFC
000000
000000
3FFFFC
3FFFFC
000000
000000
000000
000000
000000
000000
000000
000000
000000
000000
ENDCHAR
STARTCHAR <unknown>
ENCODING 129
SWIDTH 42 0
DWIDTH 12 0
BBX 10 18 2 0
BITMAP
C000
C000
F000
F000
CC00
CC00
C300
C300
FFC0
FFC0
C300
C300
CC00
CC00
F000
F000
C000
C000
ENDCHAR
STARTCHAR <unknown>
ENCODING 130
SWIDTH 42 0
DWIDTH 18 0
BBX 18 36 0 -10
BITMAP
000000
000000
000000
000000
000000
000000
000000
000000
000000
000000
30C300
30C300
30C300
30C300
3FFF00
3FFF00
30C300
30C300
30C300
30C300
300300
300300
3C0F00
3C0F00
0FFC00
0FFC00
000000
000000
000000
000000
000000
000000
000000
000000
000000
000000
ENDCHAR
STARTCHAR <unknown>
ENCODING 131
SWIDTH 42 0
DWIDTH 30 0
BBX 30 36 0 -10
BITMAP
00000000
00000000
3FF00000
3FF00000
30000000
30000000
3FC00000
3FC00000
30000000
30000000
33C3F3F0
33C3F3F0
33330300
33330300
03C3C3C0
03C3C3C0
03330300
03330300
0333F3F0
0333F3F0
00000000
00000000
00000000
00000000
00FCFC00
00FCFC00
00CC0C00
00CC0C00
00FC3C00
00FC3C00
00CC0C00
00CC0C00
00FCFC00
00FCFC00
00000000
00000000
ENDCHAR
STARTCHAR <unknown>
ENCODING 132
SWIDTH 42 0
DWIDTH 28 0
BBX 28 26 0 0
BITMAP
00000000
00000000
000F0000
000F0000
000F0000
000F0000
0030C000
0030C000
0030C000
0030C000
00C03000
00C03000
00C03000
00C03000
03000C00
03000C00
03000C00
03000C00
0F000F00
0F000F00
0C000300
0C000300
3C0003C0
3C0003C0
3FFFFFC0
3FFFFFC0
ENDCHAR
STARTCHAR <unknown>
ENCODING 133
SWIDTH 42 0
DWIDTH 30 0
BBX 30 36 0 -10
BITMAP
00000000
00000000
3FF00000
3FF00000
30000000
30000000
3FC00000
3FC00000
30000000
30000000
33C3F3F0
33C3F3F0
33330300
33330300
03C3C3C0
03C3C3C0
03330300
03330300
0333F3F0
0333F3F0
00000000
00000000
00000000
00000000
00FCFC00
00FCFC00
00CCC000
00CCC000
00FCFC00
00FCFC00
00CC0C00
00CC0C00
00FCFC00
00FCFC00
00000000
00000000
ENDCHAR
STARTCHAR <unknown>
ENCODING 134
SWIDTH 42 0
DWIDTH 22 0
BBX 22 26 0 0
BITMAP
000000
000000
03FF00
03FF00
003000
003000
003000
003000
03FF00
03FF00
0C30C0
0C30C0
303030
303030
303030
303030
0C30C0
0C30C0
03FF00
03FF00
003000
003000
003000
003000
03FF00
03FF00
ENDCHAR
STARTCHAR <unknown>
ENCODING 135
SWIDTH 42 0
DWIDTH 22 0
BBX 22 26 0 0
BITMAP
000000
000000
3FFFF0
3FFFF0
0300F0
0300F0
030030
030030
030030
030030
030000
030000
030000
030000
030000
030000
030000
030000
030000
030000
030000
030000
030000
030000
3FF000
3FF000
ENDCHAR
STARTCHAR <unknown>
ENCODING 136
SWIDTH 42 0
DWIDTH 30 0
BBX 30 36 0 -10
BITMAP
0003C000
0003C000
0003C000
0003C000
0003C000
0003C000
0003C000
0003C000
0003C000
0003C000
0003C000
0003C000
0003C000
0003C000
0003C000
0003C000
0003FFFC
0003FFFC
0003FFFC
0003FFFC
00000000
00000000
00000000
00000000
00000000
00000000
00000000
00000000
00000000
00000000
00000000
00000000
00000000
00000000
00000000
00000000
ENDCHAR
STARTCHAR <unknown>
ENCODING 137
SWIDTH 42 0
DWIDTH 22 0
BBX 22 36 0 -10
BITMAP
000000
000000
000000
000000
000000
000000
000000
000000
FC00FC
FC00FC
0F03C0
0F03C0
030300
030300
03CF00
03CF00
00CC00
00CC00
00CC00
00CC00
00FC00
00FC00
00FC00
00FC00
003000
003000
003000
003000
000000
000000
000000
000000
000000
000000
000000
000000
ENDCHAR
STARTCHAR <unknown>
ENCODING 138
SWIDTH 42 0
DWIDTH 26 0
BBX 26 26 0 0
BITMAP
00000000
00000000
00FFC000
00FFC000
03003000
03003000
0C000C00
0C000C00
0C000C00
0C000C00
30C0C300
30C0C300
30FFC300
30FFC300
30C0C300
30C0C300
30000300
30000300
3C000F00
3C000F00
0C000C00
0C000C00
03003000
03003000
00FFC000
00FFC000
ENDCHAR
STARTCHAR <unknown>
ENCODING 139
SWIDTH 42 0
DWIDTH 30 0
BBX 30 36 0 -10
BITMAP
00000000
00000000
00000000
00000000
00300030
00300030
03CF0030
03CF0030
0C00C0C0
0C00C0C0
300030C0
300030C0
00000300
00000300
00000300
00000300
00000C00
00000C00
00000C00
00000C00
00003000
00003000
00003000
00003000
0000C000
0000C000
0000C000
0000C000
00000000
00000000
00000000
00000000
00000000
00000000
00000000
00000000
ENDCHAR
STARTCHAR <unknown>
ENCODING 140
SWIDTH 42 0
DWIDTH 26 0
BBX 26 26 0 0
BITMAP
00000000
00000000
000C0000
000C0000
000C0000
000C0000
00330000
00330000
00330000
00330000
00330000
00330000
00330000
00330000
00C0C000
00C0C000
00C0C000
00C0C000
00C0C000
00C0C000
03003000
03003000
03003000
03003000
3FF3FF00
3FF3FF00
ENDCHAR
STARTCHAR <unknown>
ENCODING 141
SWIDTH 42 0
DWIDTH 18 0
BBX 18 36 0 -10
BITMAP
000000
000000
000000
000000
000000
000000
000000
000000
000000
000000
000000
000000
03FF00
03FF00
0C0000
0C0000
300000
300000
3FFF00
3FFF00
300000
300000
0C0000
0C0000
03FF00
03FF00
000000
000000
000000
000000
000000
000000
000000
000000
000000
000000
ENDCHAR
STARTCHAR <unknown>
ENCODING 142
SWIDTH 42 0
DWIDTH 18 0
BBX 18 36 0 -10
BITMAP
000000
000000
000000
000000
000000
000000
000000
000000
000300
000300
000300
000300
03FF00
03FF00
0C0C00
0C0C00
303000
303000
3FFF00
3FFF00
303000
303000
0CC000
0CC000
03FF00
03FF00
030000
030000
030000
030000
000000
000000
000000
000000
000000
000000
ENDCHAR
STARTCHAR <unknown>
ENCODING 143
SWIDTH 42 0
DWIDTH 30 0
BBX 30 36 0 -10
BITMAP
00000000
00000000
00000000
00000000
00000000
00000000
00000000
00000000
3000C300
3000C300
0C0030C0
0C0030C0
03000C30
03000C30
00FFFFFC
00FFFFFC
03000C30
03000C30
0C0030C0
0C0030C0
3000C300
3000C300
00000000
00000000
00000000
00000000
00000000
00000000
00000000
00000000
00000000
00000000
00000000
00000000
00000000
00000000
ENDCHAR
STARTCHAR <unknown>
ENCODING 144
SWIDTH 42 0
DWIDTH 28 0
BBX 28 26 0 0
BITMAP
00000000
00000000
3FFFFFC0
3FFFFFC0
03000C00
03000C00
03000C00
03000C00
03000C00
03000C00
03000C00
03000C00
03000C00
03000C00
03000C00
03000C00
03000C00
03000C00
03000C00
03000C00
03000C00
03000C00
03000C00
03000C00
3FF0FFC0
3FF0FFC0
ENDCHAR
STARTCHAR <unknown>
ENCODING 145
SWIDTH 42 0
DWIDTH 22 0
BBX 22 36 0 -10
BITMAP
000000
000000
000000
000000
3FFFC0
3FFFC0
300000
300000
300000
300000
300000
300000
300000
300000
300000
300000
300000
300000
300000
300000
000000
000000
303300
303300
3CF300
3CF300
333300
333300
333300
333300
303300
303300
3033F0
3033F0
000000
000000
ENDCHAR
STARTCHAR <unknown>
ENCODING 146
SWIDTH 42 0
DWIDTH 12 0
BBX 10 18 2 0
BITMAP
C000
C000
F000
F000
CC00
CC00
C300
C300
C0C0
C0C0
C300
C300
CC00
CC00
F000
F000
C000
C000
ENDCHAR
STARTCHAR <unknown>
ENCODING 147
SWIDTH 42 0
DWIDTH 24 0
BBX 24 26 0 0
BITMAP
000000
000000
3FFFFC
3FFFFC
3C003C
3C003C
0C000C
0C000C
03000C
03000C
00C000
00C000
00C000
00C000
00F000
00F000
00C000
00C000
03000C
03000C
03000C
03000C
0C003C
0C003C
3FFFFC
3FFFFC
ENDCHAR
STARTCHAR <unknown>
ENCODING 148
SWIDTH 42 0
DWIDTH 20 0
BBX 20 26 0 0
BITMAP
000000
000000
000000
000000
3FFFC0
3FFFC0
300000
300000
3003C0
3003C0
3003C0
3003C0
300000
300000
300000
300000
3003C0
3003C0
3003C0
3003C0
000000
000000
000000
000000
000000
000000
ENDCHAR
STARTCHAR <unknown>
ENCODING 149
SWIDTH 42 0
DWIDTH 26 0
BBX 26 26 0 0
BITMAP
00000000
00000000
0FC0FC00
0FC0FC00
30330300
30330300
000C0000
000C0000
000C0000
000C0000
000C0000
000C0000
000C0000
000C0000
000C0000
000C0000
000C0000
000C0000
000C0000
000C0000
000C0000
000C0000
000C0000
000C0000
00FFC000
00FFC000
ENDCHAR
STARTCHAR <unknown>
ENCODING 150
SWIDTH 42 0
DWIDTH 30 0
BBX 30 36 0 -10
BITMAP
00000000
00000000
3FF00000
3FF00000
30000000
30000000
3FC00000
3FC00000
30000000
30000000
33C3F3F0
33C3F3F0
33330300
33330300
03C3C3C0
03C3C3C0
03330300
03330300
0333F3F0
0333F3F0
00000000
00000000
00000000
00000000
00FCFC00
00FCFC00
00CCC000
00CCC000
00FCFC00
00FCFC00
000CCC00
000CCC00
000CFC00
000CFC00
00000000
00000000
ENDCHAR
STARTCHAR <unknown>
ENCODING 151
SWIDTH 42 0
DWIDTH 24 0
BBX 24 26 0 0
BITMAP
000000
000000
00FF00
00FF00
0F00F0
0F00F0
30000C
30000C
30000C
30000C
30000C
30000C
30000C
30000C
0C0030
0C0030
0C0030
0C0030
0300C0
0300C0
3300CC
3300CC
0CC330
0CC330
0FC3F0
0FC3F0
ENDCHAR
STARTCHAR <unknown>
ENCODING 152
SWIDTH 42 0
DWIDTH 22 0
BBX 22 26 0 0
BITMAP
000000
000000
3FFFF0
3FFFF0
300030
300030
000000
000000
000000
000000
0C00C0
0C00C0
0FFFC0
0FFFC0
0C00C0
0C00C0
000000
000000
000000
000000
300030
300030
300030
300030
3FFFF0
3FFFF0
ENDCHAR
STARTCHAR <unknown>
ENCODING 153
SWIDTH 42 0
DWIDTH 26 0
BBX 26 26 0 0
BITMAP
00000000
00000000
00FFC000
00FFC000
000C0000
000C0000
3C0C0F00
3C0C0F00
0C0C0C00
0C0C0C00
0C0C0C00
0C0C0C00
0C0C0C00
0C0C0C00
0C0C0C00
0C0C0C00
030C3000
030C3000
00FFC000
00FFC000
000C0000
000C0000
000C0000
000C0000
00FFC000
00FFC000
ENDCHAR
STARTCHAR <unknown>
ENCODING 154
SWIDTH 42 0
DWIDTH 18 0
BBX 18 36 0 -10
BITMAP
0000C0
0000C0
03FF00
03FF00
0C0F00
0C0F00
300F00
300F00
300F00
300F00
303300
303300
30C300
30C300
30C300
30C300
330300
330300
3C0300
3C0300
3C0300
3C0300
3C0C00
3C0C00
3FF000
3FF000
C00000
C00000
000000
000000
000000
000000
000000
000000
000000
000000
ENDCHAR
STARTCHAR <unknown>
ENCODING 155
SWIDTH 42 0
DWIDTH 22 0
BBX 22 36 0 -10
BITMAP
000000
000000
000000
000000
000000
000000
000000
000000
003000
003000
003000
003000
00FC00
00FC00
00CC00
00CC00
00CC00
00CC00
00CC00
00CC00
03CF00
03CF00
030300
030300
0F03C0
0F03C0
FC00FC
FC00FC
000000
000000
000000
000000
000000
000000
000000
000000
ENDCHAR
STARTCHAR <unknown>
ENCODING 156
SWIDTH 42 0
DWIDTH 32 0
BBX 32 36 0 -10
BITMAP
00000000
00000000
00000000
00000000
00000000
00000000
00000000
00000000
00000000
00000000
00000000
00000000
00000000
00000000
00000000
00000000
FFFFFFFF
FFFFFFFF
FFFFFFFF
FFFFFFFF
00000000
00000000
00000000
00000000
FFFFFFFF
FFFFFFFF
FFFFFFFF
FFFFFFFF
00000000
00000000
00000000
00000000
00000000
00000000
00000000
00000000
ENDCHAR
STARTCHAR <unknown>
ENCODING 157
SWIDTH 42 0
DWIDTH 30 0
BBX 30 36 0 -10
BITMAP
00000000
00000000
00000000
00000000
00000000
00000000
00000000
00000000
00000000
00000000
00000000
00000000
00000000
00000000
00000000
00000000
0003FFFC
0003FFFC
0003FFFC
0003FFFC
0003C000
0003C000
0003C000
0003C000
0003FFFC
0003FFFC
0003FFFC
0003FFFC
0003C000
0003C000
0003C000
0003C000
0003C000
0003C000
0003C000
0003C000
ENDCHAR
STARTCHAR <unknown>
ENCODING 158
SWIDTH 42 0
DWIDTH 30 0
BBX 30 36 0 -10
BITMAP
00000000
00000000
00000000
00000000
00000000
00000000
00000000
00000000
300CC300
300CC300
0C0CC0C0
0C0CC0C0
030CC030
030CC030
00FFFFFC
00FFFFFC
030CC030
030CC030
0C0CC0C0
0C0CC0C0
300CC300
300CC300
00000000
00000000
00000000
00000000
00000000
00000000
00000000
00000000
00000000
00000000
00000000
00000000
00000000
00000000
ENDCHAR
STARTCHAR <unknown>
ENCODING 159
SWIDTH 42 0
DWIDTH 30 0
BBX 30 36 0 -10
BITMAP
00000000
00000000
00000000
00000000
00000000
00000000
00000000
00000000
000CC300
000CC300
000CC0C0
000CC0C0
000CC030
000CC030
3FFFFFFC
3FFFFFFC
000CC030
000CC030
000CC0C0
000CC0C0
000CC300
000CC300
00000000
00000000
00000000
00000000
00000000
00000000
00000000
00000000
00000000
00000000
00000000
00000000
00000000
00000000
ENDCHAR
STARTCHAR <unknown>
ENCODING 160
SWIDTH 42 0
DWIDTH 24 0
BBX 24 36 0 -10
BITMAP
000000
000000
000000
000000
000000
000000
000000
000000
000000
000000
0FFFFC
0FFFFC
3C0000
3C0000
300000
300000
300000
300000
3C0000
3C0000
0FFFFC
0FFFFC
000000
000000
000000
000000
000000
000000
000000
000000
000000
000000
000000
000000
000000
000000
ENDCHAR
STARTCHAR <unknown>
ENCODING 161
SWIDTH 42 0
DWIDTH 18 0
BBX 18 36 0 -10
BITMAP
000000
000000
000000
000000
000000
000000
000000
000000
000000
000000
0FFC00
0FFC00
3C0F00
3C0F00
300300
300300
300300
300300
300300
300300
300300
300300
300300
300300
300300
300300
000000
000000
000000
000000
000000
000000
000000
000000
000000
000000
ENDCHAR
STARTCHAR <unknown>
ENCODING 162
SWIDTH 42 0
DWIDTH 12 0
BBX 8 30 2 -4
BITMAP
C0
C0
C0
C0
30
30
30
30
0C
0C
0C
0C
03
03
03
03
03
03
0C
0C
0C
0C
30
30
30
30
C0
C0
C0
C0
ENDCHAR
STARTCHAR <unknown>
ENCODING 163
SWIDTH 42 0
DWIDTH 22 0
BBX 22 36 0 -10
BITMAP
000000
000000
000000
000000
000000
000000
000000
000000
3FFFF0
3FFFF0
3C00F0
3C00F0
330330
330330
30CC30
30CC30
303030
303030
30CC30
30CC30
330330
330330
3C00F0
3C00F0
3FFFF0
3FFFF0
000000
000000
000000
000000
000000
000000
000000
000000
000000
000000
ENDCHAR
STARTCHAR <unknown>
ENCODING 164
SWIDTH 42 0
DWIDTH 32 0
BBX 32 36 0 -10
BITMAP
00000000
00000000
00000000
00000000
00000000
00000000
00000000
00000000
00C00300
00C00300
030000C0
030000C0
0FFFFFF0
0FFFFFF0
3000000C
3000000C
0FFFFFF0
0FFFFFF0
030000C0
030000C0
00C00300
00C00300
00000000
00000000
00000000
00000000
00000000
00000000
00000000
00000000
00000000
00000000
00000000
00000000
00000000
00000000
ENDCHAR
STARTCHAR <unknown>
ENCODING 165
SWIDTH 42 0
DWIDTH 24 0
BBX 24 36 0 -10
BITMAP
000000
000000
000000
000000
000000
000000
000000
000000
03FFC0
03FFC0
0FFFF0
0FFFF0
3F00FC
3F00FC
3C003C
3C003C
3C003C
3C003C
3C003C
3C003C
3C003C
3C003C
3C003C
3C003C
3C003C
3C003C
3C003C
3C003C
000000
000000
000000
000000
000000
000000
000000
000000
ENDCHAR
STARTCHAR <unknown>
ENCODING 166
SWIDTH 42 0
DWIDTH 18 0
BBX 18 36 0 -10
BITMAP
000000
000000
000000
000000
000000
000000
000000
000000
000000
000000
00C000
00C000
033000
033000
0C0C00
0C0C00
3FFF00
3FFF00
000000
000000
3FFF00
3FFF00
000000
000000
000000
000000
000000
000000
000000
000000
000000
000000
000000
000000
000000
000000
ENDCHAR
STARTCHAR <unknown>
ENCODING 167
SWIDTH 42 0
DWIDTH 12 0
BBX 8 30 2 -4
BITMAP
03
03
03
03
0C
0C
0C
0C
30
30
30
30
C0
C0
C0
C0
C0
C0
30
30
30
30
0C
0C
0C
0C
03
03
03
03
ENDCHAR
STARTCHAR <unknown>
ENCODING 168
SWIDTH 42 0
DWIDTH 12 0
BBX 8 28 2 -4
BITMAP
03
03
0C
0C
3C
3C
3C
3C
CC
CC
CC
CC
CC
CC
CC
CC
CC
CC
CC
CC
3C
3C
3C
3C
0C
0C
03
03
ENDCHAR
STARTCHAR <unknown>
ENCODING 169
SWIDTH 42 0
DWIDTH 12 0
BBX 8 28 2 -4
BITMAP
C0
C0
30
30
3C
3C
3C
3C
33
33
33
33
33
33
33
33
33
33
33
33
3C
3C
3C
3C
30
30
C0
C0
ENDCHAR
STARTCHAR <unknown>
ENCODING 170
SWIDTH 42 0
DWIDTH 32 0
BBX 32 36 0 -10
BITMAP
00000000
00000000
00000000
00000000
00000000
00000000
00000000
00000000
00C00300
00C00300
030000C0
030000C0
0C000030
0C000030
3FFFFFFC
3FFFFFFC
0C000030
0C000030
030000C0
030000C0
00C00300
00C00300
00000000
00000000
00000000
00000000
00000000
00000000
00000000
00000000
00000000
00000000
00000000
00000000
00000000
00000000
ENDCHAR
STARTCHAR <unknown>
ENCODING 171
SWIDTH 42 0
DWIDTH 22 0
BBX 22 36 0 -10
BITMAP
000000
000000
000000
000000
000000
000000
000000
000000
00FC00
00FC00
0F33C0
0F33C0
0C30C0
0C30C0
303030
303030
3FFFF0
3FFFF0
303030
303030
0C30C0
0C30C0
0F33C0
0F33C0
00FC00
00FC00
000000
000000
000000
000000
000000
000000
000000
000000
000000
000000
ENDCHAR
STARTCHAR <unknown>
ENCODING 172
SWIDTH 42 0
DWIDTH 20 0
BBX 20 26 0 0
BITMAP
000000
000000
000000
000000
3FFFC0
3FFFC0
300000
300000
300000
300000
300000
300000
300000
300000
300000
300000
300000
300000
300000
300000
000000
000000
000000
000000
000000
000000
ENDCHAR
STARTCHAR <unknown>
ENCODING 173
SWIDTH 42 0
DWIDTH 26 0
BBX 26 36 0 -10
BITMAP
00000000
00000000
00000000
00000000
00000000
00000000
00000000
00000000
00003000
00003000
00000C00
00000C00
00000300
00000300
3FFFFFC0
3FFFFFC0
00000300
00000300
00000C00
00000C00
00003000
00003000
00000000
00000000
00000000
00000000
00000000
00000000
00000000
00000000
00000000
00000000
00000000
00000000
00000000
00000000
ENDCHAR
STARTCHAR <unknown>
ENCODING 174
SWIDTH 42 0
DWIDTH 20 0
BBX 20 26 0 0
BITMAP
000000
000000
000000
000000
3FFFC0
3FFFC0
0000C0
0000C0
0000C0
0000C0
0000C0
0000C0
0000C0
0000C0
0000C0
0000C0
0000C0
0000C0
0000C0
0000C0
000000
000000
000000
000000
000000
000000
ENDCHAR
STARTCHAR <unknown>
ENCODING 175
SWIDTH 42 0
DWIDTH 30 0
BBX 30 36 0 -10
BITMAP
00000000
00000000
3FF00000
3FF00000
30000000
30000000
3FC00000
3FC00000
30000000
30000000
33C3F3F0
33C3F3F0
33330300
33330300
03C3C3C0
03C3C3C0
03330300
03330300
0333F3F0
0333F3F0
00000000
00000000
00000000
00000000
00FCFC00
00FCFC00
00CCC000
00CCC000
00FCF000
00FCF000
00CCC000
00CCC000
00CCC000
00CCC000
00000000
00000000
ENDCHAR
STARTCHAR <unknown>
ENCODING 176
SWIDTH 42 0
DWIDTH 22 0
BBX 22 36 0 -10
BITMAP
000000
000000
000000
000000
000000
000000
000000
000000
3FFFF0
3FFFF0
3FFFF0
3FFFF0
3FFFF0
3FFFF0
3FFFF0
3FFFF0
3FFFF0
3FFFF0
3FFFF0
3FFFF0
3FFFF0
3FFFF0
3FFFF0
3FFFF0
3FFFF0
3FFFF0
000000
000000
000000
000000
000000
000000
000000
000000
000000
000000
ENDCHAR
STARTCHAR <unknown>
ENCODING 177
SWIDTH 42 0
DWIDTH 22 0
BBX 22 36 0 -10
BITMAP
000000
000000
000000
000000
000000
000000
003000
003000
003000
003000
00CC00
00CC00
00CC00
00CC00
030300
030300
030300
030300
0C00C0
0C00C0
0C00C0
0C00C0
300030
300030
300030
300030
000000
000000
000000
000000
000000
000000
000000
000000
000000
000000
ENDCHAR
STARTCHAR <unknown>
ENCODING 178
SWIDTH 42 0
DWIDTH 22 0
BBX 22 36 0 -10
BITMAP
000000
000000
000000
000000
000000
000000
300030
300030
300030
300030
0C00C0
0C00C0
0C00C0
0C00C0
030300
030300
030300
030300
00CC00
00CC00
00CC00
00CC00
003000
003000
003000
003000
000000
000000
000000
000000
000000
000000
000000
000000
000000
000000
ENDCHAR
STARTCHAR <unknown>
ENCODING 179
SWIDTH 42 0
DWIDTH 24 0
BBX 24 36 0 -10
BITMAP
000000
000000
000000
000000
000000
000000
000000
000000
000000
000000
000000
000000
3FFFFC
3FFFFC
00000C
00000C
00000C
00000C
00000C
00000C
00000C
00000C
000000
000000
000000
000000
000000
000000
000000
000000
000000
000000
000000
000000
000000
000000
ENDCHAR
STARTCHAR <unknown>
ENCODING 180
SWIDTH 42 0
DWIDTH 24 0
BBX 24 36 0 -10
BITMAP
000000
000000
000000
000000
000000
000000
000000
000000
000300
000300
0000C0
0000C0
3FFFF0
3FFFF0
00000C
00000C
3FFFF0
3FFFF0
0000C0
0000C0
000300
000300
000000
000000
000000
000000
000000
000000
000000
000000
000000
000000
000000
000000
000000
000000
ENDCHAR
STARTCHAR <unknown>
ENCODING 181
SWIDTH 42 0
DWIDTH 18 0
BBX 18 36 0 -10
BITMAP
000000
000000
FC0FC0
FC0FC0
300300
300300
300300
300300
0C0C00
0C0C00
0FFC00
0FFC00
0C0C00
0C0C00
033000
033000
033000
033000
033000
033000
00C000
00C000
00C000
00C000
00C000
00C000
000000
000000
000000
000000
000000
000000
000000
000000
000000
000000
ENDCHAR
STARTCHAR <unknown>
ENCODING 182
SWIDTH 42 0
DWIDTH 18 0
BBX 18 36 0 -10
BITMAP
000000
000000
3FFF00
3FFF00
300C00
300C00
000C00
000C00
000C00
000C00
000C00
000C00
0FFC00
0FFC00
000C00
000C00
000C00
000C00
000C00
000C00
000C00
000C00
300C00
300C00
3FFF00
3FFF00
000000
000000
000000
000000
000000
000000
000000
000000
000000
000000
ENDCHAR
STARTCHAR <unknown>
ENCODING 183
SWIDTH 42 0
DWIDTH 14 0
BBX 6 6 4 6
BITMAP
FC
FC
FC
FC
FC
FC
ENDCHAR
STARTCHAR <unknown>
ENCODING 184
SWIDTH 42 0
DWIDTH 18 0
BBX 18 36 0 -10
BITMAP
000000
000000
000000
000000
000000
000000
000000
000000
300300
300300
0C0C00
0C0C00
033000
033000
00C000
00C000
033000
033000
0C0C00
0C0C00
300300
300300
000000
000000
000000
000000
000000
000000
000000
000000
000000
000000
000000
000000
000000
000000
ENDCHAR
STARTCHAR <unknown>
ENCODING 185
SWIDTH 42 0
DWIDTH 20 0
BBX 20 36 0 -10
BITMAP
000000
000000
03FC00
03FC00
0C0300
0C0300
3000C0
3000C0
30F0C0
30F0C0
330CC0
330CC0
330CC0
330CC0
330CC0
330CC0
30C0C0
30C0C0
3030C0
3030C0
330CC0
330CC0
330CC0
330CC0
330CC0
330CC0
30F0C0
30F0C0
3000C0
3000C0
0C0300
0C0300
03FC00
03FC00
000000
000000
ENDCHAR
STARTCHAR <unknown>
ENCODING 186
SWIDTH 42 0
DWIDTH 14 0
BBX 10 24 2 -4
BITMAP
3F00
3F00
CCC0
CCC0
FFC0
FFC0
CCC0
CCC0
3F00
3F00
0000
0000
0000
0000
3F00
3F00
CCC0
CCC0
FFC0
FFC0
CCC0
CCC0
3F00
3F00
ENDCHAR
STARTCHAR <unknown>
ENCODING 187
SWIDTH 42 0
DWIDTH 18 0
BBX 18 36 0 -10
BITMAP
000000
000000
000000
000000
000000
000000
03F000
03F000
0C0C00
0C0C00
0C0C00
0C0C00
0C0C00
0C0C00
03F000
03F000
000000
000000
000000
000000
03F000
03F000
0C0C00
0C0C00
0C0C00
0C0C00
0C0C00
0C0C00
03FC00
03FC00
003000
003000
00C000
00C000
030000
030000
ENDCHAR
STARTCHAR <unknown>
ENCODING 188
SWIDTH 42 0
DWIDTH 20 0
BBX 20 36 0 -10
BITMAP
000000
000000
000000
000000
0000C0
0000C0
000300
000300
000C00
000C00
003000
003000
00C000
00C000
030000
030000
30C000
30C000
0C3000
0C3000
030C00
030C00
00C300
00C300
0030C0
0030C0
000C00
000C00
000000
000000
000000
000000
000000
000000
000000
000000
ENDCHAR
STARTCHAR <unknown>
ENCODING 189
SWIDTH 42 0
DWIDTH 20 0
BBX 20 36 0 -10
BITMAP
000000
000000
000000
000000
000000
000000
000000
000000
000300
000300
000C00
000C00
3FFFC0
3FFFC0
00C000
00C000
3FFFC0
3FFFC0
030000
030000
0C0000
0C0000
000000
000000
000000
000000
000000
000000
000000
000000
000000
000000
000000
000000
000000
000000
ENDCHAR
STARTCHAR <unknown>
ENCODING 190
SWIDTH 42 0
DWIDTH 20 0
BBX 20 36 0 -10
BITMAP
000000
000000
000000
000000
300000
300000
0C0000
0C0000
030000
030000
00C000
00C000
003000
003000
000C00
000C00
0030C0
0030C0
00C300
00C300
030C00
030C00
0C3000
0C3000
30C000
30C000
030000
030000
000000
000000
000000
000000
000000
000000
000000
000000
ENDCHAR
STARTCHAR <unknown>
ENCODING 191
SWIDTH 42 0
DWIDTH 30 0
BBX 30 36 0 -10
BITMAP
00000000
00000000
3FF00000
3FF00000
30000000
30000000
3FC00000
3FC00000
30000000
30000000
33C3F3F0
33C3F3F0
33330300
33330300
03C3C3C0
03C3C3C0
03330300
03330300
0333F3F0
0333F3F0
00000000
00000000
00000000
00000000
00C0FC00
00C0FC00
00C0C000
00C0C000
00FCF000
00FCF000
00CCC000
00CCC000
00FCC000
00FCC000
00000000
00000000
ENDCHAR
STARTCHAR <unknown>
ENCODING 192
SWIDTH 42 0
DWIDTH 18 0
BBX 18 36 0 -10
BITMAP
000000
000000
000000
000000
000000
000000
000000
000000
000000
000000
300300
300300
300300
300300
300300
300300
300300
300300
300300
300300
300300
300300
3C0F00
3C0F00
0FFC00
0FFC00
000000
000000
000000
000000
000000
000000
000000
000000
000000
000000
ENDCHAR
STARTCHAR <unknown>
ENCODING 193
SWIDTH 42 0
DWIDTH 22 0
BBX 22 26 0 0
BITMAP
000000
000000
000000
000000
000000
000000
000000
000000
000000
000000
000000
000000
03C000
03C000
0C30C0
0C30C0
300CC0
300CC0
300CC0
300CC0
300300
300300
0C0F30
0C0F30
03F0F0
03F0F0
ENDCHAR
STARTCHAR <unknown>
ENCODING 194
SWIDTH 42 0
DWIDTH 16 0
BBX 12 30 2 -6
BITMAP
0FC0
0FC0
3030
3030
C030
C030
C030
C030
C030
C030
FFC0
FFC0
C0C0
C0C0
C030
C030
C030
C030
C030
C030
F0C0
F0C0
CFC0
CFC0
C000
C000
C000
C000
C000
C000
ENDCHAR
STARTCHAR <unknown>
ENCODING 195
SWIDTH 42 0
DWIDTH 30 0
BBX 30 36 0 -10
BITMAP
00000000
00000000
3FF00000
3FF00000
30000000
30000000
3FC00000
3FC00000
30000000
30000000
33C3F3F0
33C3F3F0
33330300
33330300
03C3C3C0
03C3C3C0
03330300
03330300
0333F3F0
0333F3F0
00000000
00000000
00000000
00000000
00FCFC00
00FCFC00
00CC0C00
00CC0C00
00C03C00
00C03C00
00CC0C00
00CC0C00
00FCFC00
00FCFC00
00000000
00000000
ENDCHAR
STARTCHAR <unknown>
ENCODING 196
SWIDTH 42 0
DWIDTH 14 0
BBX 10 24 2 0
BITMAP
3F00
3F00
C0C0
C0C0
C000
C000
C000
C000
3000
3000
0F00
0F00
3300
3300
C0C0
C0C0
C0C0
C0C0
C0C0
C0C0
30C0
30C0
0F00
0F00
ENDCHAR
STARTCHAR <unknown>
ENCODING 197
SWIDTH 42 0
DWIDTH 16 0
BBX 12 14 2 0
BITMAP
3FC0
3FC0
F000
F000
FF00
FF00
C000
C000
C000
C000
3030
3030
0FC0
0FC0
ENDCHAR
STARTCHAR <unknown>
ENCODING 198
SWIDTH 42 0
DWIDTH 18 0
BBX 18 32 0 -6
BITMAP
000000
000000
00C000
00C000
00C000
00C000
00C000
00C000
00C000
00C000
00C000
00C000
03F000
03F000
0CCC00
0CCC00
30C300
30C300
30C300
30C300
30C300
30C300
0CCC00
0CCC00
03F000
03F000
00C000
00C000
00C000
00C000
00C000
00C000
ENDCHAR
STARTCHAR <unknown>
ENCODING 199
SWIDTH 42 0
DWIDTH 20 0
BBX 20 32 0 -6
BITMAP
000000
000000
000000
000000
000000
000000
000000
000000
000000
000000
000000
000000
0FC0C0
0FC0C0
3C30C0
3C30C0
300CC0
300CC0
000F00
000F00
000300
000300
000300
000300
000300
000300
000300
000300
000300
000300
000300
000300
ENDCHAR
STARTCHAR <unknown>
ENCODING 200
SWIDTH 42 0
DWIDTH 18 0
BBX 18 32 0 -6
BITMAP
000000
000000
000000
000000
000000
000000
000000
000000
000000
000000
000000
000000
3C3C00
3C3C00
33C300
33C300
330300
330300
030300
030300
030300
030300
030300
030300
030300
030300
000300
000300
000300
000300
000300
000300
ENDCHAR
STARTCHAR <unknown>
ENCODING 201
SWIDTH 42 0
DWIDTH 10 0
BBX 6 14 2 0
BITMAP
C0
C0
C0
C0
C0
C0
C0
C0
CC
CC
CC
CC
F0
F0
ENDCHAR
STARTCHAR <unknown>
ENCODING 202
SWIDTH 42 0
DWIDTH 14 0
BBX 10 24 2 0
BITMAP
0C00
0C00
3300
3300
C0C0
C0C0
C0C0
C0C0
C0C0
C0C0
FFC0
FFC0
FFC0
FFC0
C0C0
C0C0
C0C0
C0C0
C0C0
C0C0
3300
3300
0C00
0C00
ENDCHAR
STARTCHAR <unknown>
ENCODING 203
SWIDTH 42 0
DWIDTH 18 0
BBX 18 26 0 0
BITMAP
000000
000000
000000
000000
000000
000000
000000
000000
000000
000000
000000
000000
303C00
303C00
30C000
30C000
3F0000
3F0000
33C000
33C000
303300
303300
303300
303300
300F00
300F00
ENDCHAR
STARTCHAR <unknown>
ENCODING 204
SWIDTH 42 0
DWIDTH 20 0
BBX 20 26 0 0
BITMAP
000000
000000
3C0000
3C0000
030000
030000
030000
030000
00C000
00C000
00C000
00C000
003000
003000
003000
003000
003C00
003C00
00CC00
00CC00
030300
030300
030300
030300
0C00C0
0C00C0
ENDCHAR
STARTCHAR <unknown>
ENCODING 205
SWIDTH 42 0
DWIDTH 18 0
BBX 18 32 0 -6
BITMAP
000000
000000
000000
000000
000000
000000
000000
000000
000000
000000
000000
000000
303000
303000
303000
303000
303000
303000
303000
303000
303300
303300
30F300
30F300
3FCF00
3FCF00
300000
300000
300000
300000
300000
300000
ENDCHAR
STARTCHAR <unknown>
ENCODING 206
SWIDTH 42 0
DWIDTH 16 0
BBX 12 14 2 0
BITMAP
F030
F030
3030
3030
3030
3030
30C0
30C0
30C0
30C0
3300
3300
3C00
3C00
ENDCHAR
STARTCHAR <unknown>
ENCODING 207
SWIDTH 42 0
DWIDTH 32 0
BBX 32 36 0 -10
BITMAP
00000000
00000000
00000000
00000000
00000000
00000000
00000000
00000000
0030C300
0030C300
003030C0
003030C0
00300C30
00300C30
FFFFFFFC
FFFFFFFC
00300C30
00300C30
003030C0
003030C0
0030C300
0030C300
00000000
00000000
00000000
00000000
00000000
00000000
00000000
00000000
00000000
00000000
00000000
00000000
00000000
00000000
ENDCHAR
STARTCHAR <unknown>
ENCODING 208
SWIDTH 42 0
DWIDTH 20 0
BBX 20 26 0 0
BITMAP
000000
000000
000000
000000
000000
000000
000000
000000
000000
000000
000000
000000
0FFFC0
0FFFC0
30CC00
30CC00
30CC00
30CC00
00CC00
00CC00
00CC00
00CC00
00CC00
00CC00
030300
030300
ENDCHAR
STARTCHAR <unknown>
ENCODING 209
SWIDTH 42 0
DWIDTH 24 0
BBX 24 32 0 -6
BITMAP
000000
000000
000000
000000
000000
000000
000000
000000
000000
000000
000000
000000
3C00C0
3C00C0
3300C0
3300C0
00C300
00C300
00CC00
00CC00
003C00
003C00
003C00
003C00
003300
003300
00C300
00C300
0300CC
0300CC
03003C
03003C
ENDCHAR
STARTCHAR <unknown>
ENCODING 210
SWIDTH 42 0
DWIDTH 14 0
BBX 10 20 2 -6
BITMAP
3F00
3F00
3300
3300
C0C0
C0C0
C0C0
C0C0
C0C0
C0C0
F300
F300
FF00
FF00
C000
C000
C000
C000
C000
C000
ENDCHAR
STARTCHAR <unknown>
ENCODING 211
SWIDTH 42 0
DWIDTH 18 0
BBX 18 26 0 0
BITMAP
000000
000000
000000
000000
000000
000000
000000
000000
000000
000000
000000
000000
03FF00
03FF00
0C3000
0C3000
300C00
300C00
300C00
300C00
300C00
300C00
0C3000
0C3000
03C000
03C000
ENDCHAR
STARTCHAR <unknown>
ENCODING 212
SWIDTH 42 0
DWIDTH 18 0
BBX 18 26 0 0
BITMAP
000000
000000
000000
000000
000000
000000
000000
000000
000000
000000
000000
000000
0FFF00
0FFF00
30C000
30C000
30C000
30C000
00C000
00C000
00C000
00C000
00C000
00C000
00C000
00C000
ENDCHAR
STARTCHAR <unknown>
ENCODING 213
SWIDTH 42 0
DWIDTH 20 0
BBX 20 26 0 0
BITMAP
000000
000000
000000
000000
000000
000000
000000
000000
000000
000000
000000
000000
0F0300
0F0300
3300C0
3300C0
3300C0
3300C0
0300C0
0300C0
0300C0
0300C0
030300
030300
00FC00
00FC00
ENDCHAR
STARTCHAR <unknown>
ENCODING 214
SWIDTH 42 0
DWIDTH 30 0
BBX 30 36 0 -10
BITMAP
00000000
00000000
3FF00000
3FF00000
30000000
30000000
3FC00000
3FC00000
30000000
30000000
33C3F3F0
33C3F3F0
33330300
33330300
03C3C3C0
03C3C3C0
03330300
03330300
0333F3F0
0333F3F0
00000000
00000000
00000000
00000000
000CFC00
000CFC00
000CC000
000CC000
00FCFC00
00FCFC00
00CCCC00
00CCCC00
00FCFC00
00FCFC00
00000000
00000000
ENDCHAR
STARTCHAR <unknown>
ENCODING 215
SWIDTH 42 0
DWIDTH 24 0
BBX 24 26 0 0
BITMAP
000000
000000
000000
000000
000000
000000
000000
000000
000000
000000
000000
000000
0C0030
0C0030
30000C
30000C
300C0C
300C0C
300C0C
300C0C
300C0C
300C0C
0C3F30
0C3F30
03C3F0
03C3F0
ENDCHAR
STARTCHAR <unknown>
ENCODING 216
SWIDTH 42 0
DWIDTH 16 0
BBX 12 30 2 -6
BITMAP
0C00
0C00
0C00
0C00
3FC0
3FC0
C000
C000
C000
C000
C000
C000
3FC0
3FC0
3000
3000
C000
C000
C000
C000
C000
C000
3000
3000
0FC0
0FC0
0030
0030
03F0
03F0
ENDCHAR
STARTCHAR <unknown>
ENCODING 217
SWIDTH 42 0
DWIDTH 22 0
BBX 22 32 0 -6
BITMAP
000000
000000
000C00
000C00
000C00
000C00
000C00
000C00
000C00
000C00
000C00
000C00
0F0CC0
0F0CC0
330C30
330C30
330C30
330C30
030C30
030C30
030C30
030C30
00CCC0
00CCC0
003F00
003F00
000C00
000C00
000C00
000C00
000C00
000C00
ENDCHAR
STARTCHAR <unknown>
ENCODING 218
SWIDTH 42 0
DWIDTH 16 0
BBX 12 30 2 -6
BITMAP
0C00
0C00
0C00
0C00
0FC0
0FC0
3000
3000
3000
3000
C000
C000
C000
C000
C000
C000
C000
C000
C000
C000
3000
3000
3C00
3C00
03F0
03F0
0030
0030
03F0
03F0
ENDCHAR
STARTCHAR <unknown>
ENCODING 219
SWIDTH 42 0
DWIDTH 20 0
BBX 20 36 0 -10
BITMAP
000000
000000
3FC000
3FC000
300000
300000
300000
300000
300000
300000
300000
300000
300000
300000
300000
300000
300000
300000
300000
300000
300000
300000
300000
300000
30C0C0
30C0C0
303300
303300
3F0C00
3F0C00
003300
003300
00C0C0
00C0C0
000000
000000
ENDCHAR
STARTCHAR <unknown>
ENCODING 220
SWIDTH 42 0
DWIDTH 30 0
BBX 30 36 0 -10
BITMAP
0003C000
0003C000
0003C000
0003C000
0003C000
0003C000
0003C000
0003C000
0003C000
0003C000
0003C000
0003C000
0003C000
0003C000
0003C000
0003C000
0003C000
0003C000
0003C000
0003C000
0003C000
0003C000
0003C000
0003C000
0003C000
0003C000
0003C000
0003C000
0003C000
0003C000
0003C000
0003C000
0003C000
0003C000
0003C000
0003C000
ENDCHAR
STARTCHAR <unknown>
ENCODING 221
SWIDTH 42 0
DWIDTH 18 0
BBX 18 36 0 -10
BITMAP
000000
000000
00FF00
00FF00
000300
000300
000300
000300
000300
000300
000300
000300
000300
000300
000300
000300
000300
000300
000300
000300
000300
000300
000300
000300
303300
303300
0CC300
0CC300
030F00
030F00
0CC000
0CC000
303000
303000
000000
000000
ENDCHAR
STARTCHAR <unknown>
ENCODING 222
SWIDTH 42 0
DWIDTH 24 0
BBX 24 36 0 -10
BITMAP
000000
000000
000000
000000
000000
000000
000000
000000
3C003C
3C003C
3C003C
3C003C
3C003C
3C003C
3C003C
3C003C
3C003C
3C003C
3C003C
3C003C
3C003C
3C003C
3F00FC
3F00FC
0FFFF0
0FFFF0
03FFC0
03FFC0
000000
000000
000000
000000
000000
000000
000000
000000
ENDCHAR
STARTCHAR <unknown>
ENCODING 223
SWIDTH 42 0
DWIDTH 30 0
BBX 30 36 0 -10
BITMAP
00000000
00000000
00000000
00000000
00000000
00000000
00000000
00000000
000C0C00
000C0C00
000C0300
000C0300
000C00C0
000C00C0
3FFFFFF0
3FFFFFF0
000C00C0
000C00C0
000C0300
000C0300
000C0C00
000C0C00
00000000
00000000
00000000
00000000
00000000
00000000
00000000
00000000
00000000
00000000
00000000
00000000
00000000
00000000
ENDCHAR
STARTCHAR <unknown>
ENCODING 224
SWIDTH 42 0
DWIDTH 30 0
BBX 30 36 0 -10
BITMAP
00000000
00000000
00000000
00000000
00000000
00000000
00000000
00000000
30000C00
30000C00
0C000300
0C000300
030000C0
030000C0
03FFFFF0
03FFFFF0
030000C0
030000C0
0C000300
0C000300
30000C00
30000C00
00000000
00000000
00000000
00000000
00000000
00000000
00000000
00000000
00000000
00000000
00000000
00000000
00000000
00000000
ENDCHAR
STARTCHAR <unknown>
ENCODING 225
SWIDTH 42 0
DWIDTH 14 0
BBX 10 18 2 0
BITMAP
00C0
00C0
03C0
03C0
0CC0
0CC0
30C0
30C0
FFC0
FFC0
30C0
30C0
0CC0
0CC0
03C0
03C0
00C0
00C0
ENDCHAR
STARTCHAR <unknown>
ENCODING 226
SWIDTH 42 0
DWIDTH 26 0
BBX 26 36 0 -10
BITMAP
00000000
00000000
00000000
00000000
000C0000
000C0000
000C0000
000C0000
000C0000
000C0000
000C0000
000C0000
000C0000
000C0000
000C0000
000C0000
000C0000
000C0000
000C0000
000C0000
000C0000
000C0000
000C0000
000C0000
3FFFFF00
3FFFFF00
00000000
00000000
00000000
00000000
00000000
00000000
00000000
00000000
00000000
00000000
ENDCHAR
STARTCHAR <unknown>
ENCODING 227
SWIDTH 42 0
DWIDTH 30 0
BBX 30 36 0 -10
BITMAP
00000000
00000000
3FF00000
3FF00000
30000000
30000000
3FC00000
3FC00000
30000000
30000000
33C3F3F0
33C3F3F0
33330300
33330300
03C3C3C0
03C3C3C0
03330300
03330300
0333F3F0
0333F3F0
00000000
00000000
00000000
00000000
00FCFC00
00FCFC00
00C00C00
00C00C00
00F03C00
00F03C00
00C00C00
00C00C00
00FCFC00
00FCFC00
00000000
00000000
ENDCHAR
STARTCHAR <unknown>
ENCODING 228
SWIDTH 42 0
DWIDTH 30 0
BBX 30 36 0 -10
BITMAP
00000000
00000000
3FF00000
3FF00000
30000000
30000000
3FC00000
3FC00000
30000000
30000000
33C3F3F0
33C3F3F0
33330300
33330300
03C3C3C0
03C3C3C0
03330300
03330300
0333F3F0
0333F3F0
00000000
00000000
00000000
00000000
00FCCC00
00FCCC00
00C0CC00
00C0CC00
00F0FC00
00F0FC00
00C00C00
00C00C00
00FC0C00
00FC0C00
00000000
00000000
ENDCHAR
STARTCHAR <unknown>
ENCODING 229
SWIDTH 42 0
DWIDTH 30 0
BBX 30 36 0 -10
BITMAP
00000000
00000000
3FF00000
3FF00000
30000000
30000000
3FC00000
3FC00000
30000000
30000000
33C3F3F0
33C3F3F0
33330300
33330300
03C3C3C0
03C3C3C0
03330300
03330300
0333F3F0
0333F3F0
00000000
00000000
00000000
00000000
00FCFC00
00FCFC00
00C0C000
00C0C000
00F0FC00
00F0FC00
00C00C00
00C00C00
00FCFC00
00FCFC00
00000000
00000000
ENDCHAR
STARTCHAR <unknown>
ENCODING 230
SWIDTH 42 0
DWIDTH 22 0
BBX 22 36 0 -10
BITMAP
000000
000000
3FFFF0
3FFFF0
30C030
30C030
30C000
30C000
30C000
30C000
30C000
30C000
30FFC0
30FFC0
30C000
30C000
30C000
30C000
30C000
30C000
30C000
30C000
30C000
30C000
3FF000
3FF000
000000
000000
000000
000000
000000
000000
000000
000000
000000
000000
ENDCHAR
STARTCHAR <unknown>
ENCODING 231
SWIDTH 42 0
DWIDTH 26 0
BBX 26 28 0 -2
BITMAP
00000000
00000000
00000000
00000000
0003FF00
0003FF00
00000F00
00000F00
00003300
00003300
0000C300
0000C300
00030300
00030300
000C0000
000C0000
00300000
00300000
00C00000
00C00000
03000000
03000000
0C000000
0C000000
30000000
30000000
00000000
00000000
ENDCHAR
STARTCHAR <unknown>
ENCODING 232
SWIDTH 42 0
DWIDTH 24 0
BBX 24 26 0 0
BITMAP
000000
000000
000000
000000
300000
300000
0C0000
0C0000
030000
030000
00C000
00C000
003000
003000
000C0C
000C0C
00030C
00030C
0000CC
0000CC
00003C
00003C
000FFC
000FFC
000000
000000
ENDCHAR
STARTCHAR <unknown>
ENCODING 233
SWIDTH 42 0
DWIDTH 30 0
BBX 30 36 0 -10
BITMAP
00000000
00000000
3FF00000
3FF00000
30000000
30000000
3FC00000
3FC00000
30000000
30000000
33C3F3F0
33C3F3F0
33330300
33330300
03C3C3C0
03C3C3C0
03330300
03330300
0333F3F0
0333F3F0
00000000
00000000
00000000
00000000
00FCFC00
00FCFC00
00C0CC00
00C0CC00
00F0FC00
00F0FC00
00C00C00
00C00C00
00FC0C00
00FC0C00
00000000
00000000
ENDCHAR
STARTCHAR <unknown>
ENCODING 234
SWIDTH 42 0
DWIDTH 18 0
BBX 18 30 0 -4
BITMAP
000000
000000
00C000
00C000
03F000
03F000
0CCC00
0CCC00
30C300
30C300
00C000
00C000
00C000
00C000
00C000
00C000
00C000
00C000
00C000
00C000
30C300
30C300
0CCC00
0CCC00
03F000
03F000
00C000
00C000
000000
000000
ENDCHAR
STARTCHAR <unknown>
ENCODING 235
SWIDTH 42 0
DWIDTH 20 0
BBX 20 36 0 -10
BITMAP
000000
000000
000000
000000
003000
003000
03CF00
03CF00
0C00C0
0C00C0
300030
300030
000000
000000
000000
000000
000000
000000
000000
000000
000000
000000
000000
000000
000000
000000
000000
000000
000000
000000
000000
000000
000000
000000
000000
000000
ENDCHAR
STARTCHAR <unknown>
ENCODING 236
SWIDTH 42 0
DWIDTH 30 0
BBX 30 36 0 -10
BITMAP
00000000
00000000
3FF00000
3FF00000
30000000
30000000
3FC00000
3FC00000
30000000
30000000
33C3F3F0
33C3F3F0
33330300
33330300
03C3C3C0
03C3C3C0
03330300
03330300
0333F3F0
0333F3F0
00000000
00000000
00000000
00000000
00FCFC00
00FCFC00
00C0CC00
00C0CC00
00F0C000
00F0C000
00C0CC00
00C0CC00
00FCFC00
00FCFC00
00000000
00000000
ENDCHAR
STARTCHAR <unknown>
ENCODING 237
SWIDTH 42 0
DWIDTH 30 0
BBX 30 36 0 -10
BITMAP
00000000
00000000
00000000
00000000
00000000
00000000
00000000
00000000
30000C00
30000C00
30000300
30000300
300000C0
300000C0
3FFFFFF0
3FFFFFF0
300000C0
300000C0
30000300
30000300
30000C00
30000C00
00000000
00000000
00000000
00000000
00000000
00000000
00000000
00000000
00000000
00000000
00000000
00000000
00000000
00000000
ENDCHAR
STARTCHAR <unknown>
ENCODING 238
SWIDTH 42 0
DWIDTH 22 0
BBX 22 36 0 -10
BITMAP
000000
000000
3FC0FC
3FC0FC
0CC030
0CC030
0F3030
0F3030
0F3030
0F3030
0CCC30
0CCC30
0CCC30
0CCC30
0C3330
0C3330
0C3330
0C3330
0C0CF0
0C0CF0
0C0CF0
0C0CF0
0C0330
0C0330
3F03F0
3F03F0
000000
000000
000000
000000
000000
000000
000000
000000
000000
000000
ENDCHAR
STARTCHAR <unknown>
ENCODING 239
SWIDTH 42 0
DWIDTH 30 0
BBX 30 36 0 -10
BITMAP
00000000
00000000
00000000
00000000
00000000
00000000
00000000
00000000
00030C00
00030C00
0000C300
0000C300
000030C0
000030C0
3FFFFFF0
3FFFFFF0
000030C0
000030C0
0000C300
0000C300
00030C00
00030C00
00000000
00000000
00000000
00000000
00000000
00000000
00000000
00000000
00000000
00000000
00000000
00000000
00000000
00000000
ENDCHAR
STARTCHAR <unknown>
ENCODING 240
SWIDTH 42 0
DWIDTH 22 0
BBX 22 36 0 -10
BITMAP
000000
000000
3FFFC0
3FFFC0
30C0F0
30C0F0
30C030
30C030
30C030
30C030
30C030
30C030
30C0C0
30C0C0
30CF00
30CF00
30C000
30C000
30C000
30C000
30C000
30C000
30C000
30C000
3FF000
3FF000
000000
000000
000000
000000
000000
000000
000000
000000
000000
000000
ENDCHAR
STARTCHAR <unknown>
ENCODING 241
SWIDTH 42 0
DWIDTH 20 0
BBX 20 36 0 -10
BITMAP
000000
000000
000000
000000
3FFFC0
3FFFC0
300000
300000
300000
300000
300000
300000
300000
300000
300000
300000
300000
300000
300000
300000
000000
000000
0FFF00
0FFF00
0C0C00
0C0C00
003000
003000
00C000
00C000
030F00
030F00
0FFF00
0FFF00
000000
000000
ENDCHAR
STARTCHAR <unknown>
ENCODING 242
SWIDTH 42 0
DWIDTH 14 0
BBX 10 18 2 0
BITMAP
00C0
00C0
03C0
03C0
0CC0
0CC0
30C0
30C0
C0C0
C0C0
30C0
30C0
0CC0
0CC0
03C0
03C0
00C0
00C0
ENDCHAR
STARTCHAR <unknown>
ENCODING 243
SWIDTH 42 0
DWIDTH 30 0
BBX 30 36 0 -10
BITMAP
00000000
00000000
3FF00000
3FF00000
30000000
30000000
3FC00000
3FC00000
30000000
30000000
33C3F3F0
33C3F3F0
33330300
33330300
03C3C3C0
03C3C3C0
03330300
03330300
0333F3F0
0333F3F0
00000000
00000000
00000000
00000000
00FCFC00
00FCFC00
00C00C00
00C00C00
00F03C00
00F03C00
00C00C00
00C00C00
00FCFC00
00FCFC00
00000000
00000000
ENDCHAR
STARTCHAR <unknown>
ENCODING 244
SWIDTH 42 0
DWIDTH 14 0
BBX 12 18 2 2
BITMAP
C000
C000
C000
C000
C000
C000
C000
C000
FFF0
FFF0
C000
C000
C000
C000
C000
C000
C000
C000
ENDCHAR
STARTCHAR <unknown>
ENCODING 245
SWIDTH 42 0
DWIDTH 30 0
BBX 30 36 0 -10
BITMAP
00000000
00000000
3FF00000
3FF00000
30000000
30000000
3FC00000
3FC00000
30000000
30000000
33C3F3F0
33C3F3F0
33330300
33330300
03C3C3C0
03C3C3C0
03330300
03330300
0333F3F0
0333F3F0
00000000
00000000
00000000
00000000
00FCFC00
00FCFC00
00C0C000
00C0C000
00F0FC00
00F0FC00
00C00C00
00C00C00
00C0FC00
00C0FC00
00000000
00000000
ENDCHAR
STARTCHAR <unknown>
ENCODING 246
SWIDTH 42 0
DWIDTH 30 0
BBX 30 36 0 -10
BITMAP
00000000
00000000
3FF00000
3FF00000
30000000
30000000
3FC00000
3FC00000
30000000
30000000
33C3F3F0
33C3F3F0
33330300
33330300
03C3C3C0
03C3C3C0
03330300
03330300
0333F3F0
0333F3F0
00000000
00000000
00000000
00000000
00FCFC00
00FCFC00
00C0C000
00C0C000
00F0FC00
00F0FC00
00C0CC00
00C0CC00
00C0FC00
00C0FC00
00000000
00000000
ENDCHAR
STARTCHAR <unknown>
ENCODING 247
SWIDTH 42 0
DWIDTH 30 0
BBX 30 36 0 -10
BITMAP
0003C000
0003C000
0003C000
0003C000
0003C000
0003C000
0003C000
0003C000
0003C000
0003C000
0003C000
0003C000
0003C000
0003C000
0003C000
0003C000
0003FFFC
0003FFFC
0003FFFC
0003FFFC
0003C000
0003C000
0003C000
0003C000
0003C000
0003C000
0003C000
0003C000
0003C000
0003C000
0003C000
0003C000
0003C000
0003C000
0003C000
0003C000
ENDCHAR
STARTCHAR <unknown>
ENCODING 248
SWIDTH 42 0
DWIDTH 30 0
BBX 30 36 0 -10
BITMAP
00000000
00000000
3FF00000
3FF00000
30000000
30000000
3FC00000
3FC00000
30000000
30000000
33C3F3F0
33C3F3F0
33330300
33330300
03C3C3C0
03C3C3C0
03330300
03330300
0333F3F0
0333F3F0
00000000
00000000
00000000
00000000
00FCFC00
00FCFC00
00C0CC00
00C0CC00
00F0FC00
00F0FC00
00C0CC00
00C0CC00
00C0FC00
00C0FC00
00000000
00000000
ENDCHAR
STARTCHAR <unknown>
ENCODING 249
SWIDTH 42 0
DWIDTH 16 0
BBX 8 26 4 -2
BITMAP
C0
C0
C0
C0
F0
F0
F0
F0
CC
CC
C3
C3
C0
C0
C0
C0
C0
C0
C0
C0
C0
C0
C0
C0
C0
C0
ENDCHAR
STARTCHAR <unknown>
ENCODING 250
SWIDTH 42 0
DWIDTH 18 0
BBX 18 36 0 -10
BITMAP
000000
000000
3FFF00
3FFF00
303300
303300
303300
303300
00CC00
00CC00
00CC00
00CC00
033000
033000
033000
033000
0CC000
0CC000
0CC000
0CC000
330300
330300
330300
330300
3FFF00
3FFF00
000000
000000
000000
000000
000000
000000
000000
000000
000000
000000
ENDCHAR
STARTCHAR <unknown>
ENCODING 251
SWIDTH 42 0
DWIDTH 14 0
BBX 10 28 2 -4
BITMAP
FFC0
FFC0
CC00
CC00
CC00
CC00
CC00
CC00
CC00
CC00
CC00
CC00
CC00
CC00
CC00
CC00
CC00
CC00
CC00
CC00
CC00
CC00
CC00
CC00
CC00
CC00
FFC0
FFC0
ENDCHAR
STARTCHAR <unknown>
ENCODING 252
SWIDTH 42 0
DWIDTH 30 0
BBX 30 36 0 -10
BITMAP
00000000
00000000
00000000
00000000
00000000
00000000
00000000
00000000
00000000
00000000
00000000
00000000
00000000
00000000
00000000
00000000
FFFFFFFC
FFFFFFFC
FFFFFFFC
FFFFFFFC
00000000
00000000
00000000
00000000
00000000
00000000
00000000
00000000
00000000
00000000
00000000
00000000
00000000
00000000
00000000
00000000
ENDCHAR
STARTCHAR <unknown>
ENCODING 253
SWIDTH 42 0
DWIDTH 14 0
BBX 10 28 2 -4
BITMAP
FFC0
FFC0
0CC0
0CC0
0CC0
0CC0
0CC0
0CC0
0CC0
0CC0
0CC0
0CC0
0CC0
0CC0
0CC0
0CC0
0CC0
0CC0
0CC0
0CC0
0CC0
0CC0
0CC0
0CC0
0CC0
0CC0
FFC0
FFC0
ENDCHAR
STARTCHAR <unknown>
ENCODING 254
SWIDTH 42 0
DWIDTH 30 0
BBX 30 36 0 -10
BITMAP
00000000
00000000
00000000
00000000
00000000
00000000
00000000
00000000
30030C00
30030C00
0C030300
0C030300
030300C0
030300C0
03FFFFF0
03FFFFF0
030300C0
030300C0
0C030300
0C030300
30030C00
30030C00
00000000
00000000
00000000
00000000
00000000
00000000
00000000
00000000
00000000
00000000
00000000
00000000
00000000
00000000
ENDCHAR
STARTCHAR <unknown>
ENCODING 255
SWIDTH 42 0
DWIDTH 30 0
BBX 30 36 0 -10
BITMAP
00000000
00000000
00000000
00000000
00000000
00000000
00000000
00000000
00000000
00000000
00000000
00000000
00000000
00000000
00000000
00000000
0003FFFC
0003FFFC
0003FFFC
0003FFFC
0003C000
0003C000
0003C000
0003C000
0003C000
0003C000
0003C000
0003C000
0003C000
0003C000
0003C000
0003C000
0003C000
0003C000
0003C000
0003C000
ENDCHAR
ENDFONT
